<?xml version="1.0" encoding="UTF-8"?>
<svg id="Layer_1" data-name="Layer 1" xmlns="http://www.w3.org/2000/svg" xmlns:xlink="http://www.w3.org/1999/xlink" viewBox="0 0 1920 1080">
  <defs>
    <style>
      .cls-1 {
        fill: url(#linear-gradient);
      }

      .cls-2 {
        fill: #88d8c3;
      }

      .cls-3 {
        fill: url(#linear-gradient-3);
      }

      .cls-4 {
        fill: url(#linear-gradient-2);
      }
    </style>
    <linearGradient id="linear-gradient" x1="4023.03" y1="-2486.43" x2="3512.93" y2="-1894.24" gradientTransform="translate(4105.49 -3676.01) rotate(90) scale(1 -1)" gradientUnits="userSpaceOnUse">
      <stop offset="0" stop-color="#2ebe9b"/>
      <stop offset="1" stop-color="#152652"/>
    </linearGradient>
    <linearGradient id="linear-gradient-2" x1="3422.24" y1="-7420.6" x2="2632.77" y2="-6504.08" gradientTransform="translate(-7079.69 -2737.94) rotate(90)" xlink:href="#linear-gradient"/>
    <linearGradient id="linear-gradient-3" x1="1327.71" y1="-11110.88" x2="597.66" y2="-10263.33" gradientTransform="translate(-743.72 -10755.46) scale(1 -1)" xlink:href="#linear-gradient"/>
  </defs>
  <g>
    <path class="cls-2" d="M1802.65,1006.96c-.93-.89-2.18-1.4-3.49-1.4s-2.57,.5-3.49,1.4c-.93,.89-1.45,2.11-1.45,3.37,0,1.26,.52,2.48,1.45,3.37,.93,.89,2.18,1.4,3.49,1.4s2.57-.5,3.49-1.4,1.45-2.11,1.45-3.37-.52-2.48-1.45-3.37Zm0-24.69c-.93-.89-2.18-1.4-3.49-1.4s-2.57,.5-3.49,1.4c-.93,.89-1.45,2.11-1.45,3.37s.52,2.48,1.45,3.37c.93,.89,2.18,1.4,3.49,1.4s2.57-.5,3.49-1.4,1.45-2.11,1.45-3.37-.52-2.48-1.45-3.37Zm0-24.69c-.93-.89-2.18-1.4-3.49-1.4s-2.57,.5-3.49,1.4c-.93,.89-1.45,2.11-1.45,3.37s.52,2.48,1.45,3.37c.93,.89,2.18,1.4,3.49,1.4s2.57-.5,3.49-1.4,1.45-2.11,1.45-3.37c0-1.26-.52-2.48-1.45-3.37Zm0-24.69c-.93-.89-2.18-1.4-3.49-1.4s-2.57,.5-3.49,1.4c-.93,.89-1.45,2.11-1.45,3.37,0,1.26,.52,2.48,1.45,3.37,.93,.89,2.18,1.4,3.49,1.4s2.57-.5,3.49-1.4c.93-.89,1.45-2.11,1.45-3.37s-.52-2.48-1.45-3.37Zm0-24.69c-.93-.89-2.18-1.4-3.49-1.4s-2.57,.5-3.49,1.4c-.93,.89-1.45,2.11-1.45,3.37s.52,2.48,1.45,3.37c.93,.89,2.18,1.4,3.49,1.4s2.57-.5,3.49-1.4,1.45-2.11,1.45-3.37-.52-2.48-1.45-3.37Zm0-24.69c-.93-.89-2.18-1.4-3.49-1.4s-2.57,.5-3.49,1.4c-.93,.89-1.45,2.11-1.45,3.37,0,1.26,.52,2.48,1.45,3.37,.93,.89,2.18,1.4,3.49,1.4s2.57-.5,3.49-1.4c.93-.89,1.45-2.11,1.45-3.37s-.52-2.48-1.45-3.37Zm0-24.69c-.93-.89-2.18-1.4-3.49-1.4s-2.57,.5-3.49,1.4c-.93,.89-1.45,2.11-1.45,3.37,0,2.63,2.21,4.77,4.94,4.77s4.94-2.14,4.94-4.77c0-1.26-.52-2.48-1.45-3.37Zm0-24.69c-.93-.89-2.18-1.4-3.49-1.4s-2.57,.5-3.49,1.4c-.93,.89-1.45,2.11-1.45,3.37,0,2.63,2.21,4.77,4.94,4.77s4.94-2.13,4.94-4.77c0-1.26-.52-2.48-1.45-3.37Zm-3.49-26.09c-2.73,0-4.94,2.13-4.94,4.77,0,1.26,.52,2.48,1.45,3.37,.93,.89,2.18,1.4,3.49,1.4s2.57-.5,3.49-1.4c.93-.89,1.45-2.11,1.45-3.37,0-2.63-2.21-4.77-4.94-4.77Zm0-24.69c-2.73,0-4.94,2.13-4.94,4.77,0,1.26,.52,2.48,1.45,3.37,.93,.89,2.18,1.4,3.49,1.4s2.57-.5,3.49-1.4,1.45-2.11,1.45-3.37c0-2.63-2.21-4.77-4.94-4.77Z"/>
    <path class="cls-2" d="M1821.65,982.15c-.93-.89-2.18-1.4-3.49-1.4s-2.57,.5-3.49,1.4c-.93,.89-1.45,2.11-1.45,3.37s.52,2.48,1.45,3.37c.93,.89,2.18,1.4,3.49,1.4s2.57-.5,3.49-1.4,1.45-2.11,1.45-3.37-.52-2.48-1.45-3.37Zm0-24.69c-.93-.89-2.18-1.4-3.49-1.4s-2.57,.5-3.49,1.4c-.93,.89-1.45,2.11-1.45,3.37s.52,2.48,1.45,3.37c.93,.89,2.18,1.4,3.49,1.4s2.57-.5,3.49-1.4,1.45-2.11,1.45-3.37-.52-2.48-1.45-3.37Zm0-24.69c-.93-.89-2.18-1.4-3.49-1.4s-2.57,.5-3.49,1.4c-.93,.89-1.45,2.11-1.45,3.37s.52,2.48,1.45,3.37c.93,.89,2.18,1.4,3.49,1.4s2.57-.5,3.49-1.4c.93-.89,1.45-2.11,1.45-3.37s-.52-2.48-1.45-3.37Zm0-24.69c-.93-.89-2.18-1.4-3.49-1.4s-2.57,.5-3.49,1.4c-.93,.89-1.45,2.11-1.45,3.37s.52,2.48,1.45,3.37c.93,.89,2.18,1.4,3.49,1.4s2.57-.5,3.49-1.4,1.45-2.11,1.45-3.37-.52-2.48-1.45-3.37Zm0-24.69c-.93-.89-2.18-1.4-3.49-1.4s-2.57,.5-3.49,1.4c-.93,.89-1.45,2.11-1.45,3.37,0,1.26,.52,2.48,1.45,3.37,.93,.89,2.18,1.4,3.49,1.4s2.57-.5,3.49-1.4c.93-.89,1.45-2.11,1.45-3.37s-.52-2.48-1.45-3.37Zm0-24.69c-.93-.89-2.18-1.4-3.49-1.4s-2.57,.5-3.49,1.4c-.93,.89-1.45,2.11-1.45,3.37s.52,2.48,1.45,3.37c.93,.89,2.18,1.4,3.49,1.4s2.57-.5,3.49-1.4,1.45-2.11,1.45-3.37-.52-2.48-1.45-3.37Zm0-24.7c-.93-.89-2.18-1.4-3.49-1.4s-2.57,.5-3.49,1.4c-.93,.89-1.45,2.11-1.45,3.37,0,2.63,2.21,4.77,4.94,4.77,2.73,0,4.94-2.13,4.94-4.77,0-1.26-.52-2.48-1.45-3.37Zm0-24.69c-.93-.89-2.18-1.4-3.49-1.4s-2.57,.5-3.49,1.4c-.93,.89-1.45,2.11-1.45,3.37,0,2.63,2.21,4.77,4.94,4.77s4.94-2.13,4.94-4.77c0-1.26-.52-2.48-1.45-3.37Zm-3.49-26.09c-2.73,0-4.94,2.13-4.94,4.77,0,1.26,.52,2.48,1.45,3.37,.93,.89,2.18,1.4,3.49,1.4s2.57-.5,3.49-1.4c.93-.89,1.45-2.11,1.45-3.37,0-2.63-2.21-4.77-4.94-4.77Zm0-24.69c-2.73,0-4.94,2.13-4.94,4.77,0,1.26,.52,2.48,1.45,3.37,.93,.89,2.18,1.4,3.49,1.4s2.57-.5,3.49-1.4,1.45-2.11,1.45-3.37c0-2.63-2.21-4.77-4.94-4.77Z"/>
  </g>
  <path class="cls-1" d="M1357.64,.24h562.36V659.78c-187.39-27.14-212.31-144.6-138.6-286.89,79.2-152.88-19.8-229.32-257.39-277.1-112.25-22.57-153.79-61.14-166.38-95.55Z"/>
  <path class="cls-4" d="M342.83,6.31C328,1.93,310.7,.09,291.23,.25,194.15,1.05,97.08,1.85,0,2.65,0,353.56,0,704.47,0,1055.37c0,1.22,0,24.63,0,24.63,185.28-26.23,209.91-139.73,137.03-277.22-43.32-81.72-55.41-172.51-3.73-253.54,53.2-83.42,153.69-124.81,208.04-207.56,36.52-55.61,58.09-119.92,62.19-185.22,3.37-53.65,5.33-130.65-60.72-150.15Z"/>
  <path class="cls-3" d="M0,543.03V.24H1023.63c-42.13,180.87-224.43,204.92-445.27,133.77-237.28-76.44-355.91,19.11-430.06,248.43C113.27,490.79,53.41,530.88,0,543.03Z"/>
</svg>