<svg width="150" height="150" xmlns="http://www.w3.org/2000/svg">
    <title>Aston Villa Football Club</title>
    <path
        d="M104.908 32L105 96.404c0 5.046-3.12 9.082-9.358 11.926-2.018.918-4.77 1.835-8.257 2.936-4.036 1.193-6.605 2.018-7.523 2.385a11.73 11.73 0 00-3.21 1.743c-.46.367-1.01.918-1.744 1.652a15.99 15.99 0 00-2.293-2.11c-.276-.275-.826-.55-1.652-.918l-1.1-.458-7.524-2.294c-3.394-1.01-6.146-2.018-8.165-3.027C48.028 105.303 45 101.358 45 96.312V32h59.908zm-10.734 74.587c5.78-2.477 8.624-5.871 8.624-10.275v-62.11H47.202v62.11c0 4.312 2.844 7.798 8.532 10.275 1.835.826 4.404 1.652 7.523 2.569l7.064 2.018 2.569 1.193c.734.459 1.376 1.1 2.11 1.835.642-.642 1.193-1.101 1.56-1.376.734-.643 1.743-1.101 3.027-1.56.826-.367 3.211-1.01 6.973-2.11 3.21-.917 5.78-1.743 7.614-2.569zm-35.32-51.284l-1.652 1.468.367 2.11-1.835-1.01c-.55.368-1.193.643-1.835 1.01l.367-2.11-1.468-1.468 2.11-.275.918-1.927.917 1.927 2.11.275zm7.155 9.908c.459.459 1.01.734 2.202.367.917-.367 1.193-1.927 1.01-2.294-.184-.275-2.02-.458-2.753.092-.367.184-.459.459-.184 1.376-.458-.367-1.284-.734-1.743-1.468-.275-.367-.275-.825-.091-1.284l-.55.55c-.093-.275-.184-.55-.184-.733.734-.826 1.743-1.56 2.66-2.294.459-1.468 1.01-1.376 2.752-2.66-.091-.643.184-1.193.46-1.652.733-1.1 2.66-1.927 2.935-3.211.459.55.55 1.193.459 1.835 1.651-1.468 3.578-2.11 5.412-1.285-.642.276-1.1.734-1.1 1.01 2.018-.367 3.761.091 5.229 1.284 1.56 1.284 2.477 3.67 4.22 3.395-.275.55-.917.825-1.651.825 1.651 1.652.642 4.22 2.66 4.68-.55.366-1.468.366-2.018.09.734 1.836-.734 3.304.917 4.405-.734.275-1.376.091-2.018-.367.642 1.467-.092 2.844-.092 4.128 0 .826.459 1.56 1.01 1.743-.643.275-1.56.092-2.386-.55 0 .917-.183 1.56-.367 2.293-.183.826-.275 1.56-.092 2.386.367 2.293 2.294 4.862 2.57 7.339 4.586 2.936 6.88 2.294 7.614 1.193 1.193-1.652.183-4.037-.918-5.321-1.009-1.193-2.385-2.386-3.394-3.762-.917-1.284-1.56-2.569-1.651-4.037-.184-1.834.55-3.578 2.385-5.045-.367-3.487 1.468-3.67 2.936-4.771.367-.367.825-.826.917-1.56.275.734.275 1.376.092 2.11 1.651-1.651 2.752-1.1 3.67-3.394.275.826.275 1.376-.092 2.11.734-.459 1.193-.459 1.651-.826.367-.275.826-.55 1.01-1.835 1.1 2.11.275 5.23-1.744 7.707.826 0 1.468.367 1.743.734-1.009-.092-1.467.275-1.926.642-1.01.734-2.019 1.56-3.303 1.651-1.284.184-2.66-.183-4.037-1.009-1.376 1.193-1.56 2.66-1.284 3.853.183.826.55 1.652 1.1 2.386 1.01 1.376 2.661 2.752 3.762 4.22.918 1.284 1.468 2.569 1.56 3.853.092 2.752-1.651 4.862-4.312 4.954-1.468.092-3.394-.367-5.963-1.835 0 .55-.184 1.01-.367 1.652-.184.642-.275 1.284-.275 1.743 0 1.651.642 2.293 1.284 2.752.826.642 2.844 1.01 4.587-1.468.55.826.367 2.019-.183 3.211.642.092 1.284-.183 1.926-.458-.458 1.743-1.56 2.477-2.752 3.119.183.367.917.55 1.651.092-.458.917-1.926 1.926-2.569 2.844-1.009 1.467-1.284 2.66-1.834 3.302-.276.276-.55.46-.918.367.184-.458-.092-.734-.367-.734-1.284-.183-2.018 2.386-3.853 3.762-1.01.734-2.385 1.1-3.67.459l-1.1 1.192v-1.468c-.643-.091-1.102-.275-1.285-.825-.275 0-.917.183-1.468 1.009-.092-.459-.092-1.376 1.193-2.477-.184-.092-.55-.367-.642-.55-.276 0-.918.458-1.101.641 0-.733.458-1.56 1.009-1.834.275-1.01 1.376-1.285 2.293-1.01.367-.55.826-.642 1.193-.458.367.183.734.734 1.193.825 3.027-.091 5.413-3.67 5.137-4.587-.183-.55-1.009-.917-2.477-.917-.367 1.193-1.009 2.018-2.018 2.293.275-.917-.184-1.56-.826-2.018-.825.918-1.284 1.284-2.11 1.376.734-1.743-.367-2.477-1.1-3.394-.46-.55-.643-1.193-.735-1.927-.091-.55 0-1.376.275-2.018.276-.918.826-1.652 1.01-2.386.091-.458 0-.917-.092-1.376l-.184 1.01a20.809 20.809 0 00-1.56 2.844c-1.834.55-2.11 2.201-2.018 3.119.092.917 1.01 2.66 2.936 2.293-.734 1.101-1.56 1.193-2.936.918.184.55.734 1.009 1.835.825-.917 1.652-2.752.092-4.128.46-.826.183-1.376.825-2.202 1.284-.459.275-1.1.55-2.202.642.459-.734.092-1.285-.642-1.285-1.468.092-2.569 1.468-4.312 1.927-.826.275-1.743.183-2.569-.367-.275.275-.458.734-.642 1.376-.367-.734-.367-1.651-.183-2.569-.55-.091-1.01-.458-1.285-.825-.55 0-.642.55-.826 1.192-.366-.734-.366-1.651.46-2.11 0-.642 0-1.1.183-1.376-.459-.092-.826.092-1.101.642-.275-1.1.367-1.926 2.018-1.926.275-.643-.183-.918-1.1-.367.458-1.468 1.742-1.285 2.476-.642 1.285-.367 1.743.733 2.844 1.467 1.468.918 5.688.46 6.239-1.467.459-1.377-1.835-2.386-2.11-4.129-1.101.092-1.743-.275-2.202-1.284 1.01.367 1.468.183 1.927-.367-1.377.091-1.835-.367-1.835-1.652.55.459 1.009.459 1.376.276.459-.184.734-.734 1.1-1.193.551-.459 1.377-.734 2.02-.826 1.375-.183 2.66.459 4.403-1.009-1.193-1.01-2.11-2.202-3.028-3.303-2.936.276-4.862 1.101-6.422 2.11-.825.55-1.284 1.01-1.468 2.019-.183.917 0 1.743-.917 2.477-.092.459 0 1.009.092 1.468-.276-.367-.55-.826-.643-1.376-.458 0-.917-.276-1.009-.826-.458.642-.825.826-1.376.734-.275.275-.367.734-.275 1.192-.459-.367-.734-1.192-.459-1.926-.183-.367-.183-.734 0-1.193-.642 0-1.1-.092-1.284-1.192-.642-.276-1.01-.092-1.56.458.092-1.1.734-1.56 1.651-1.651a1.72 1.72 0 01.55-.642c-.274-.276-.366-.55-.366-.918-.55-.183-.917.092-1.193.367.184-1.468 1.01-1.651 2.019-1.651.642-.275 1.192 0 1.651.367.275.275.459.642.826.734.367.183.825-.092 1.192-.367l5.413-4.22-2.477-2.294c-.092.459-.275 1.01-.642 1.376-.55-2.018-1.56-2.936-2.569-3.578-.55-.459-1.743-1.009-2.477-.55-.734.458-1.284 1.376-2.202 1.192-1.009.643-1.835.092-2.11-1.284.459.367.734.55 1.285.367-.184-1.376 1.284-.734 1.376-1.651 0-.276-.092-.46-.276-.826-.55-.184-1.467 0-1.926-.092-.459-.092-.642-.55-.826-.734-.275-.092-.917-.092-1.56.367.092-.826.643-1.376 1.468-1.56 0-.366.276-.917.734-1.192-.183-.275-.183-.459-.275-.826-.55-.55-1.1-.55-1.835-.367.459-1.1 1.468-1.284 2.57-.825.274-.184.458-.276.825-.276 0-.183.183-.367.275-.55-.367-.918-.826-1.101-1.468-1.193 1.193-.734 2.018-.183 2.66.734 1.102.184.826 1.285 1.01 2.477.183 1.101.642 1.743 1.376 2.569.459.092 1.376.183 2.202.642 1.926 1.01 3.853 2.66 7.064 2.202-.55 1.01-1.01 1.468-1.927 2.11 1.56-.092 1.835-1.743 3.211-3.21.826-.918 1.927-1.377 2.753-2.203.458-.458.734-1.1.642-1.743-.092-.55-.642-.917-1.101-.734-.55.184-1.56 1.01-2.385 1.743-.092.092 0 .367.183.826-.275 0-.734-.275-1.192-.642-.184.459.183 1.1.091 1.284-.734-.367-1.376-1.009-1.56-1.468-.183-.458-.275-.917.092-1.192-.183-.276-.275-.643-.275-1.193zm3.12-6.147c-.643 0-1.377-.092-1.652.367-.275.275-.183.642 0 .918.092.091.459.183.826 0 .458-.184.367-.826.825-1.285zm-12.294-13.67v.092H53.99c-.09.092-.09.184-.183.367l-.734 2.202c-.091.275-.091.55-.091.642 0 .092.091.184.183.184.092.091.275.091.55.183l.551.092c.092.092.092.183.092.367 0 .183 0 .275-.092.367-.642-.092-1.376-.092-2.202-.092-.458.092-1.192.092-1.926.092-.092-.092-.092-.184-.092-.367 0-.184 0-.275.092-.367l.55-.092c.275 0 .459-.092.642-.183.184-.184.367-.367.55-.734.276-.734.735-1.743 1.193-3.028l1.744-4.679c.458-1.1.733-1.926.733-2.385a2.503 2.503 0 001.193-.642l.459-.459c.275 0 .367.092.459.367.091.459.367 1.285.825 2.569l2.569 7.431c.092.275.184.55.275.734.092.275.184.367.276.55.183.276.366.367.733.46l.734.091s.092.092.092.275c0 .184 0 .275-.092.367-.917-.092-1.926-.092-2.935-.092-.918 0-1.744.092-2.57.092-.09-.092-.183-.183-.183-.367 0-.183 0-.275.092-.367l.642-.092c.275-.091.367-.091.459-.183.092-.092.092-.092.092-.183 0-.184-.092-.551-.367-1.285l-.55-1.651-.276-.276h-.642zm-1.743-.917h1.56c.275 0 .366 0 .458-.092 0-.091 0-.183-.092-.458l-.458-1.56c-.276-.917-.46-1.56-.643-2.018-.275.458-.55 1.192-.825 2.11l-.459 1.468c-.092.275-.092.367 0 .458.092.092.275.092.459.092zm17.064-2.752l-1.284 3.027c-.918 2.202-1.56 3.854-1.927 4.863-.092.091-.367.183-.642.183s-.459-.092-.55-.183c-.276-.734-.551-1.376-.826-2.202l-3.12-7.707c-.275-.917-.55-1.467-.734-1.651-.183-.183-.458-.275-.917-.367l-.55-.092c-.092-.091-.092-.275-.092-.367.092-.091.092-.183.183-.275.826.092 1.652.092 2.57.092.825 0 1.742-.092 2.843-.092.092.092.092.184.092.275 0 .184 0 .276-.092.367l-.55.092c-.276.092-.46.184-.46.367 0 .092.093.275.184.642.184.367.367.918.55 1.468l1.652 4.312c.184.642.459 1.193.55 1.468.184-.275.368-.734.643-1.376l.734-1.743c.642-1.56 1.1-2.936 1.468-3.945.091-.275.183-.55.183-.642 0-.092 0-.092-.092-.184a.7.7 0 00-.458-.183l-.55-.092c-.092-.092-.092-.184-.092-.367 0-.092.091-.184.183-.275.826.091 1.56.091 2.294.091.642 0 1.192-.091 1.743-.091.091 0 .183.091.183.275 0 .183 0 .275-.092.367l-.458.092c-.459.091-.826.275-1.01.642a26.653 26.653 0 00-1.559 3.21zm8.44-2.844h-.091v3.578c0 .275 0 .367.091.458.092.092.184.092.459.092h1.651c.46 0 .826 0 1.01-.183.183-.184.275-.459.367-.918l.091-.458c.092-.092.184-.092.367-.092.184 0 .276.092.367.183-.091.642-.091 1.285-.091 2.019 0 .734.091 1.468.091 2.018-.091.092-.183.092-.367.092-.183 0-.275 0-.367-.092l-.091-.459c-.092-.458-.184-.825-.367-.917-.184-.092-.55-.184-1.01-.184h-1.651c-.275 0-.367 0-.459.092-.091 0-.091.184-.091.459v2.569c0 .825.091 1.376.183 1.651.184.275.459.367.826.459l.734.091c.091.092.091.184.091.367 0 .184 0 .276-.091.367-1.101-.091-2.11-.091-3.028-.091-.917 0-1.926.091-3.027.091-.092-.091-.092-.183-.092-.367 0-.183 0-.275.092-.367l.642-.091c.459-.092.734-.276.826-.459.091-.275.183-.826.183-1.651v-7.065c0-.825-.092-1.376-.183-1.651-.092-.275-.367-.459-.826-.459l-.367-.091c-.092-.092-.092-.184-.092-.367 0-.092.092-.184.184-.276h6.88c1.377 0 2.202-.091 2.57-.091v2.935c-.093.092-.184.184-.276.184-.184 0-.367 0-.459-.092-.183-.734-.367-1.193-.55-1.468-.092-.183-.367-.367-.642-.458a4.072 4.072 0 00-1.193-.184h-1.651c-.276 0-.46 0-.55.092-.093.092-.093.367-.093.734zm14.771-2.019c1.01 0 1.835.092 2.385.276.734.183 1.193.275 1.468.275-.092.55 0 1.56.184 2.936 0 .091-.092.183-.276.183-.091 0-.275 0-.367-.092-.55-1.834-1.743-2.752-3.578-2.752-1.1 0-2.018.459-2.935 1.376-.918.918-1.376 2.294-1.376 4.22 0 1.835.458 3.303 1.376 4.312.825 1.01 1.835 1.468 3.027 1.468.55 0 1.01-.092 1.468-.275a3.3 3.3 0 001.101-.734c.642-.55 1.01-1.284 1.284-1.927.092-.091.184-.091.367-.091.184 0 .276.091.367.183-.183 1.56-.458 2.477-.734 3.028-.55.183-1.1.275-1.743.458a7.82 7.82 0 01-2.11.276c-1.926 0-3.578-.46-5.046-1.468a7.22 7.22 0 01-1.651-2.019c-.459-.825-.734-1.743-.734-2.935 0-.643.092-1.193.184-1.652.091-.458.275-.917.458-1.376.184-.367.459-.734.734-1.1a4.35 4.35 0 01.918-.918c1.468-1.101 3.21-1.652 5.229-1.652z"
        fill="currentColor" fill-rule="nonzero" />
</svg>