<svg width="150" height="150" xmlns="http://www.w3.org/2000/svg">
    <title>Historical Royal Palaces</title>
    <path
        d="M75.7 81.254v1.697h-.933c.56 1.132.933 2.358 1.306 3.49.374-1.038.84-2.358 1.307-3.49h-.933v-1.697H79.9v1.697h-.84l-2.8 6.036c-.373 1.132-1.493 1.98-2.707 1.98-.933.19-1.773-.47-1.96-1.414v-.283c-.093-.754.373-1.415 1.12-1.509h.093c.61 0 1.139.493 1.207 1.019l.007.113c0 .66-.56 1.226-1.307 1.132h-.187c.28.283.56.377.934.377.84 0 1.4-.566 1.68-2.358l-2.52-5.093h-.84v-1.697h3.92zm7.934.094c1.96 0 3.08.66 3.08 2.452 0 1.226-.186 1.98-.186 2.924 0 .283.093.471.28.471.186 0 .373-.094.373-.566v-.566h.84v.566c0 1.32-.467 2.075-1.587 2.075-.653 0-1.306-.283-1.306-1.414 0-.283 0-.566.093-.85h-.187c-.186 1.321-1.213 2.359-2.613 2.359a2.071 2.071 0 01-2.24-1.698v-.283c0-1.226 1.12-2.264 3.266-2.264.374 0 .747 0 1.12.095.094-.377.094-.66.094-.849 0-1.226-.56-1.698-1.4-1.698-.374 0-.747.095-1.12.283.43 0 .702.402.741.835l.005.108c0 .529-.487.892-1.008.939l-.112.005c-.522 0-1.045-.411-1.113-.926l-.007-.112c0-1.132 1.307-1.886 2.987-1.886zm40.044 0c1.96 0 3.08.66 3.08 2.452 0 1.226-.187 1.98-.187 2.924 0 .283.094.471.28.471.187 0 .374-.094.374-.566v-.566h.84v.566c0 1.32-.467 2.075-1.587 2.075-.653 0-1.307-.283-1.307-1.414 0-.283 0-.566.093-.85h-.186c-.187 1.321-1.214 2.359-2.614 2.359a2.071 2.071 0 01-2.24-1.698v-.283c0-1.226 1.12-2.264 3.267-2.264.373 0 .747 0 1.12.095.093-.377.093-.66.093-.849 0-1.226-.56-1.698-1.4-1.698-.373 0-.746.095-1.12.283.431 0 .703.402.742.835l.005.108c0 .529-.488.892-1.008.939l-.112.005c-.523 0-1.046-.411-1.113-.926l-.007-.112c0-1.132 1.307-1.886 2.987-1.886zm-13.348 0c1.96 0 3.08.66 3.08 2.452 0 1.226-.187 1.98-.187 2.924 0 .283.094.471.28.471.187 0 .374-.094.374-.566v-.566h.84v.566c0 1.32-.467 2.075-1.587 2.075-.653 0-1.307-.283-1.307-1.414 0-.283 0-.566.094-.85h-.187c-.187 1.321-1.214 2.359-2.614 2.359a2.071 2.071 0 01-2.24-1.698v-.283c0-1.226 1.12-2.264 3.267-2.264.373 0 .747 0 1.12.095.094-.377.094-.66.094-.849 0-1.226-.56-1.698-1.4-1.698-.374 0-.747.095-1.12.283.43 0 .702.402.741.835l.005.108c0 .529-.488.892-1.008.939l-.112.005c-.523 0-1.045-.411-1.113-.926l-.007-.112c0-1.132 1.307-1.886 2.987-1.886zm21.935-.094c1.4 0 2.614.565 2.614 1.791 0 .708-.493 1.25-1.17 1.314l-.137.007c-.654.094-1.214-.377-1.214-.943v-.283c-.093-.377.094-.755.467-.943h-.653c-1.12.094-2.054 1.131-1.96 2.357-.094 1.132.746 2.17 1.866 2.264.84.094 1.587-.283 1.96-1.037l1.12 1.226c-.653 1.131-1.866 1.697-3.08 1.697-1.96 0-3.547-1.603-3.547-3.49v-.188c-.093-1.98 1.494-3.678 3.547-3.772h.187zm13.628 0h.093c1.12 0 1.96.565 1.96 1.603h.094v-1.32h1.493v2.452h-1.773c-.187-1.32-.84-1.698-1.587-1.698-.56 0-.747.189-.747.66 0 1.698 4.574.566 4.574 3.49 0 1.603-1.307 2.169-2.707 2.169-.933.094-1.867-.566-2.053-1.51h-.094l.094 1.321h-1.494v-2.546h1.774c0 1.132.56 1.697 1.68 1.697.56 0 .933-.282.933-.754 0-1.698-4.574-.566-4.574-3.49.094-1.226 1.12-2.169 2.334-2.074zm-74.305 3.39l.005.193c0 2.17-1.68 3.773-3.827 3.773-2.053.094-3.827-1.603-3.827-3.678v-.095c0-2.074 1.68-3.678 3.64-3.678h.187c1.99-.091 3.716 1.5 3.822 3.485zm-12.69-5.937c2.24 0 3.454 1.226 3.454 2.547 0 1.226-.933 2.357-2.893 2.357v.189c1.586 0 2.053.754 2.053 1.792 0 .66-.093 1.037-.093 1.32 0 .189.093.283.28.283h.093c.187 0 .467-.188.467-.566v-.943h.933v.943c0 1.038-.84 1.98-1.96 1.98h-.187c-.933 0-1.68-.47-1.68-1.602 0-.378.094-.85.094-1.415 0-.66-.374-1.32-1.494-1.32h-1.213v2.357h1.4v1.698h-5.227v-1.698h1.587v-6.224h-1.587v-1.698h5.974zm80.368 2.452c2.333 0 3.453 1.604 3.36 3.961h-4.947c0 1.132.84 1.98 1.867 2.075h.186a1.754 1.754 0 001.867-1.132l.747.472a3.07 3.07 0 01-3.08 1.98c-2.054 0-3.64-1.697-3.64-3.678 0-1.98 1.68-3.678 3.64-3.678zm-47.231-2.452v7.922h1.027v1.698h-4.2v-1.698h1.306v-6.224h-1.307v-1.698h3.174zM33.416 84.46v3.867H6.627V84.46c2.054 1.415 4.667 1.415 6.72 0 2.054 1.415 4.668 1.415 6.721 0 2.054 1.415 4.668 1.415 6.721 0 1.027.66 2.24 1.038 3.267 1.038 1.213 0 2.334-.378 3.36-1.038zm85.221-5.753v7.922h1.027v1.698h-4.2v-1.698h1.306v-6.224h-1.306v-1.698h3.173zm-16.055 0c1.96 0 3.827 1.038 3.827 3.018 0 1.603-1.306 3.018-3.92 3.018h-1.867v1.886h1.68v1.698H96.89v-1.698h1.586v-6.224H96.89v-1.698h5.693zm-34.816 3.867c-1.307 0-1.68.471-1.68 2.358 0 1.886.467 2.358 1.68 2.358 1.213 0 1.587-.378 1.587-2.358 0-1.698-.28-2.358-1.587-2.358zm16.055 2.452c-1.12 0-1.587.566-1.587 1.132 0 .471.373.849.747.849h.186c.56 0 1.307-.378 1.4-1.887-.186-.094-.466-.094-.746-.094zm26.695 0c-1.12 0-1.586.566-1.586 1.132 0 .471.373.849.746.849h.187c.56 0 1.307-.378 1.4-1.887-.186-.094-.466-.094-.747-.094zm13.348 0c-1.12 0-1.586.566-1.586 1.132 0 .471.373.849.746.849h.187c.56 0 1.307-.378 1.4-1.887-.187-.094-.467-.094-.747-.094zm-103.702.755c-.747.471-1.494.754-2.334.943v.094h4.107c-.746-.189-1.306-.566-1.773-1.037zm-6.72 0c-.748.471-1.494.754-2.334.943v.094h4.107a4.22 4.22 0 01-1.774-1.037zm13.44 0c-.746.471-1.493.754-2.333.943v.094h4.107a4.22 4.22 0 01-1.774-1.037zm7.001-2.453v.566c-.933.755-2.147 1.132-3.36 1.132a5.618 5.618 0 01-3.267-1.037l-.187-.095-.187.095c-.933.66-2.053 1.037-3.173 1.037s-2.24-.377-3.174-1.037l-.187-.095-.186.095c-.934.66-2.054 1.037-3.174 1.037a5.618 5.618 0 01-3.267-1.037l-.186-.095-.187.095a5.618 5.618 0 01-3.267 1.037c-1.214 0-2.427-.377-3.36-1.132v-.566h27.162zm105.57-.754c-.84 0-1.587.66-1.68 1.603h3.173c.088-.893-.493-1.533-1.349-1.598l-.145-.005zm-37.057-2.264l-1.774.095v2.735h1.587c1.307 0 1.867-.566 1.867-1.415 0-.849-.467-1.415-1.68-1.415zm-43.964.095l-1.68.094v2.546h1.306c1.587 0 2.054-.565 2.054-1.32 0-.754-.467-1.32-1.68-1.32zm-38.27-4.244c1.213.66 2.52 1.509 2.613 2.735v4.15h-5.133v-4.15c0-1.132 1.306-1.98 2.52-2.735zm-9.428-8.3v15.09l-4.013.094V67.861h4.013zm6.534-.094v10.657c-.093.094-.093.283-.093.377v4.15h-4.387V67.767h4.48zm16.242 0V82.95h-4.107V67.767h4.107zM12.414 71.35v11.6h-1.213l.093-11.6h1.12zm15.028-3.584V82.95l-4.293-.094v-4.15c0-.189-.094-.189-.094-.377V67.767h4.387zm1.587 3.584v11.6h-1.213v-11.6h1.213zm-14.001 5.753l-.093.094c-.654.283-1.214.943-1.214 1.415v2.735h2.614v-2.735c0-.472-.654-1.132-1.214-1.415l-.093-.094zm10.268 0l-.094.094c-.653.283-1.213.943-1.213 1.415v2.735h2.613v-2.735c0-.472-.653-1.132-1.213-1.415l-.093-.094zm6.253 1.037c-.28 0-.653.189-.653.566v2.452h1.214v-2.452c-.094-.283-.28-.566-.56-.566zm-22.682 0c-.28 0-.653.189-.653.566v2.452h1.12l.094-2.452c-.094-.283-.28-.566-.56-.566zm6.161-.566c.373.189.653.566.933 1.038v2.358h-1.866v-2.358c.186-.472.466-.849.933-1.038zm10.268-.094c.466.377.746.66.933 1.037v2.358h-1.867v-2.358c.187-.471.467-.848.934-1.037zm-2.52-6.13v6.224c-.747-.848-1.587-1.509-2.52-1.98l-.094-.095-.094.095c-.933.471-1.866 1.132-2.52 1.98v-6.224h5.227zm8.96-1.887h-.28v2.358h-.56v.283h.467v2.83c-.094.094-.187.094-.187.283v.094c.093.188.28.283.467.283a.52.52 0 00.28-.472c0-.094-.094-.188-.187-.283v-2.735h.467v-.283h-.467v-2.358zm-22.775 0h-.467v2.358h-.467l.187.283h.467v2.83c-.094.094-.187.094-.187.283v.094c.093.188.28.283.467.283a.52.52 0 00.28-.472c0-.094-.094-.188-.187-.283v-2.735h.467v-.283h-.56v-2.358zm16.335 3.584c-.28 0-.56.189-.56.472h.186v1.98h.84v-1.98c-.093-.283-.186-.472-.466-.472zm-10.268 0c-.28 0-.56.189-.56.472l.093 1.98h.934v-1.98c-.094-.283-.187-.472-.467-.472zm6.814-.754h-3.36v2.546h3.36v-2.546zm58.992-7.262v2.263h2.707v1.698h-2.707V72.2c0 .432.314.706.653.748l.094.006c.373.094.746-.189.84-.66v-1.038h1.026v1.226c0 1.132-.933 2.075-2.146 2.075h-.187c-1.12-.094-2.147-.943-2.24-2.169v-3.49h-1.4v-.943c1.586 0 2.52-.66 2.426-2.923h.934zm-59.365 7.64v1.791h-2.614v-1.792h2.614zm87.18-5.754c1.4 0 2.614.566 2.614 1.792 0 .707-.492 1.249-1.169 1.314l-.138.006c-.653.095-1.213-.377-1.213-.943v-.283c-.093-.377.093-.754.467-.943h-.654c-1.213.094-2.053 1.132-1.96 2.358-.093 1.132.747 2.17 1.867 2.263.84.095 1.587-.282 1.96-1.037l1.12 1.226c-.653 1.132-1.867 1.698-3.08 1.698-1.96 0-3.547-1.604-3.547-3.49v-.188c-.093-1.981 1.493-3.679 3.547-3.773h.187zm-35.656 0h.093c1.12 0 1.96.566 1.96 1.603h.094v-1.32h1.493v2.452h-1.866c0-1.32-.654-1.698-1.494-1.698-.56 0-.747.19-.747.66 0 1.698 4.48.566 4.48 3.49 0 1.604-1.306 2.17-2.706 2.17-.933.094-1.867-.566-2.054-1.51h-.093l.093 1.32h-1.493V71.54h1.773c0 1.132.56 1.698 1.68 1.698.56 0 .934-.283.934-.755 0-1.697-4.48-.565-4.48-3.49.093-1.225 1.12-2.168 2.333-2.074zm18.943 3.39l.006.194c0 2.01-1.577 3.666-3.628 3.767l-.2.005c-2.053.095-3.827-1.603-3.827-3.678v-.094c0-2.075 1.68-3.678 3.64-3.678h.187c1.99-.092 3.716 1.499 3.822 3.485zm7.473-2.07v.283c.093.755-.467 1.32-1.214 1.415h-.093c-.653 0-1.12-.472-1.213-1.037v-.095c0-.283.093-.566.373-.754-.187 0-.187.094-.467.094-.746.472-1.12 1.226-1.026 2.075v2.17h1.68v1.602h-4.854v-1.697h1.213V68.71h-1.306v-1.603h2.8c0 .565-.094 1.509-.187 2.169h.187c0-1.32 1.12-2.358 2.427-2.358.84-.094 1.586.472 1.68 1.32zm3.734-1.131v5.281h1.12v1.603h-4.294v-1.697h1.307V68.71h-1.307v-1.603h3.174zm-44.804-2.735v1.697h-1.587v2.17h4.107v-2.17h-1.587v-1.697h5.227v1.697h-1.68v6.225h1.68v1.603h-5.227V72.2h1.587v-2.453h-4.107v2.641h1.587v1.603H53.11v-1.697h1.587v-6.225h-1.587v-1.697h5.228zm10.547 2.735v5.281h1.027v1.603h-4.2v-1.697h1.306V68.71h-1.213v-1.603h3.08zM8.027 59.562c3.08 0 5.04 2.357 7.001 2.357.093 0 .187-.094.28-.094-.467-.094-.84-.566-.84-1.037 0-.566.467-1.038 1.027-1.038.56 0 1.026.472 1.026 1.038-.093 1.037-.933 1.697-1.866 1.697-2.054 0-3.827-2.263-6.721-2.263-2.987 0-4.76 2.169-4.48 4.998 0 3.018 2.333 5.093 2.333 6.79 0 .567-.467 1.038-1.027 1.038-.56 0-1.026-.471-1.026-1.037s.466-1.038 1.026-1.038h.187c-.84-1.509-2.24-3.395-2.24-5.753v-.283c0-3.018 2.427-5.375 5.32-5.375zm24.923-.095c2.987.189 5.227 2.735 5.04 5.66 0 2.357-1.4 4.243-2.24 5.752h.187c.466 0 .933.377 1.213 1.132 0 .566-.467 1.037-1.027 1.037-.56 0-1.027-.471-1.027-1.037 0-1.792 2.334-3.773 2.334-6.79v-.472c-.093-2.547-2.147-4.622-4.667-4.527-2.894 0-4.667 2.263-6.72 2.263a1.946 1.946 0 01-1.96-1.792c0-.566.466-1.037 1.026-1.037s1.027.471 1.027 1.037c0 .472-.374.943-.84 1.038.093.094.186.094.28.094 1.96 0 4.013-2.358 7.094-2.358zm55.164 8.771c-1.306 0-1.68.472-1.68 2.358 0 1.886.467 2.358 1.68 2.358 1.307 0 1.587-.377 1.587-2.358 0-1.697-.28-2.358-1.587-2.358zm-73.086.943c-.28 0-.56.19-.56.472l.093 2.075h.934v-2.075c-.094-.283-.187-.472-.467-.472zm10.268 0c-.28 0-.56.19-.56.472h.186v2.075h.84v-2.075c-.093-.283-.186-.472-.466-.472zm-6.068.19v1.037h1.867V69.37h1.68l-.093 1.603h-5.227V69.37h1.773zM2.334 68.71c.56 0 .933.471 1.026 1.037 0 .566-.466 1.038-1.026 1.038s-1.027-.472-1.027-1.038c0-.566.466-1.037 1.027-1.037zm35.75 0c.56 0 1.026.471 1.026 1.037s-.467 1.038-1.027 1.038c-.56 0-1.026-.472-1.026-1.038 0-.566.466-1.037 1.026-1.037zm1.026-2.735l.12.005c.59.054.994.502.907 1.032 0 .566-.467 1.038-1.027 1.038-.56 0-1.027-.472-1.027-1.038 0-.566.467-1.037 1.027-1.037zm-37.897 0c.56 0 1.027.471 1.027 1.037-.093.566-.467 1.038-1.027 1.038-.56 0-1.026-.472-1.026-1.038 0-.566.466-1.037 1.026-1.037zm30.71-3.301v.189l.093.094c.187.188.28.377.28.566a.52.52 0 01-.28.471l-.093.095v.188c0 .377.093.943.56 1.132.373.094.747.283.933.66.094.189.187.377.187.66l.093.283.56.283v.283H29.03v-.283l.654-.283v-.094c0-.189.093-.472.186-.66.187-.283.467-.377.934-.66.466-.283.466-.85.56-1.226v-.19l-.094-.093a.52.52 0 01-.28-.472c-.093-.283.094-.472.28-.566l.094-.094v-.283h.56zm-22.776 0v.283l.094.094c.187.189.28.377.28.566a.52.52 0 01-.28.472l-.094.094v.189c0 .377.094.943.56 1.131.374.095.747.283.934.66.093.19.187.378.187.66v.095l.56.283.186.283H6.347V67.2l.654-.283v-.094c0-.189.093-.472.186-.66.187-.283.56-.472.934-.66.373-.19.466-.755.56-1.132v-.19l-.094-.093a.52.52 0 01-.28-.472c-.093-.283.094-.472.28-.566l.094-.094v-.283h.466zm4.948 3.018v.943h1.773v-.943h1.4v1.698h-4.48v-1.698h1.307zm10.454 0v.943h1.773v-.943h1.307v1.698h-4.48v-1.698h1.4zm-4.387-5.659l3.08 3.49-3.08 3.395-3.08-3.395 3.08-3.49zm82.14 4.339c.654 0 1.12.471 1.12 1.131s-.56 1.132-1.12 1.038c-.56 0-1.026-.472-1.12-1.038 0-.66.467-1.131 1.12-1.131zm-34.35 0c.654 0 1.12.471 1.12 1.131s-.56 1.132-1.12 1.038c-.56 0-1.12-.472-1.12-1.038 0-.66.467-1.131 1.12-1.131zM1.028 62.957c.56 0 1.027.471 1.027 1.037s-.467 1.038-1.027 1.038l-.11-.006A1.044 1.044 0 010 63.994c0-.566.467-1.037 1.027-1.037zm38.27 0l.127.006c.574.057.9.503.9 1.031 0 .566-.467 1.038-1.027 1.038-.56 0-1.027-.472-1.027-1.038 0-.566.467-1.037 1.027-1.037zm-1.027-2.83c.56 0 1.027.472 1.027 1.038 0 .566-.467 1.037-1.027 1.037-.56 0-1.027-.471-1.027-1.037s.467-1.038 1.027-1.038zm-36.216-.094c.56 0 1.026.472 1.026 1.038 0 .565-.466 1.037-1.026 1.037l-.111-.006a1.044 1.044 0 01-.916-1.031c0-.566.466-1.038 1.027-1.038zm10.64-1.603c.56 0 1.027.471 1.027 1.037s-.466 1.038-1.027 1.038c-.56 0-1.026-.472-1.026-1.038 0-.566.466-1.037 1.026-1.037zm14.935 0c.56 0 1.027.471 1.027 1.037s-.467 1.038-1.027 1.038c-.56-.095-1.027-.472-1.027-1.038 0-.566.467-1.037 1.027-1.037zm8.588-.472c.56 0 1.026.472 1.026 1.038 0 .566-.466 1.037-1.026 1.037s-1.027-.471-1.027-1.037l.006-.112a1.041 1.041 0 011.02-.926zm-32.11 0c.56 0 1.027.472 1.027 1.038 0 .566-.467 1.037-1.027 1.037-.56 0-1.027-.471-1.027-1.037s.467-1.038 1.027-1.038zm5.787-.66c.56 0 1.027.472 1.027 1.038 0 .565-.467 1.037-1.027 1.037-.56-.094-1.027-.566-1.027-1.037 0-.566.467-1.038 1.027-1.038zm20.535 0c.56 0 1.027.472 1.027 1.038 0 .565-.467 1.037-1.027 1.037-.56-.094-1.026-.566-1.026-1.037 0-.566.466-1.038 1.026-1.038zm-23.522-.283c.56 0 1.027.472 1.027 1.038 0 .565-.467 1.037-1.027 1.037-.56 0-1.026-.472-1.026-1.037 0-.566.466-1.038 1.026-1.038zm16.708-1.226c-.093 1.886-1.586 3.301-3.453 3.301-1.867-.094-3.36-1.509-3.547-3.3zm9.801 1.226c.56 0 1.027.472 1.027 1.038 0 .565-.467 1.037-1.027 1.037-.56 0-1.026-.472-1.026-1.037 0-.566.466-1.038 1.026-1.038zm-13.44-5.093v3.301h-3.268c.093-1.792 1.494-3.206 3.267-3.3zm.466 0c1.68.095 3.173 1.51 3.267 3.301h-3.267zM22.589 44v.283c-.934.283-1.494 1.226-1.494 2.17 1.027 0 1.867-.567 2.24-1.51h.28v4.904h-.28c-.373-.943-1.213-1.603-2.24-1.509 0 .944.56 1.887 1.494 2.17v.283h-4.854v-.283c.933-.283 1.587-1.226 1.493-2.17-1.026 0-1.866.566-2.24 1.51h-.28v-4.905h.28c.374.943 1.214 1.603 2.24 1.51 0-.944-.56-1.887-1.493-2.17V44h4.854zm-2.427 2.358c-.56 0-1.027.471-1.027 1.037s.467 1.038 1.027 1.038c.56 0 1.027-.472 1.027-1.038 0-.566-.467-1.037-1.027-1.037z"
        fill="currentColor" fill-rule="nonzero" />
</svg>