
<svg xmlns="http://www.w3.org/2000/svg" width="150px" viewBox="0 0 363.16 60.64"><defs></defs><g><g ><path fill="currentColor" d="M164.2.66h17.37v5.26h-11.75v4.75h11.05v5.19h-11.05v5.19h12.35v5.21h-18V.66zm64.68 6.22a5.44 5.44 0 00-4.07-1.69c-1.58 0-3.78.72-3.78 2.62 0 4.65 11.74 1.66 11.74 10.59 0 5.69-4.57 8.39-9.83 8.39a12.14 12.14 0 01-8.57-3.2l4-4.4a6.21 6.21 0 004.9 2.41c1.83 0 3.89-.86 3.89-2.66 0-4.68-12-2.16-12-10.66 0-5.44 4.72-8.28 9.72-8.28a11.58 11.58 0 017.82 2.66zM198.77.06c5.72 0 7.76 4.41 8.08 11.26-.88-3.57-4-5.8-8.12-5.8s-7.35 2.3-8.17 6C190.9 4.68 193.1.06 198.77.06zm8.06 15.5c-.36 6.69-2.49 11.18-8.06 11.18-5.75 0-7.92-4.45-8.22-11.47.8 3.71 4 6 8.18 6s7.2-2.18 8.1-5.71zM203.62.45c5.47 1.81 8.77 6.72 8.77 13s-3.38 11.26-9 13c4.41-2 6.73-7.15 6.73-13.52 0-6-2.51-10.51-6.54-12.45zM187.25 14c0 6.06 2.72 10.63 7 12.48-5.72-1.69-9.19-6.69-9.19-13.09S188.55 2 194.3.31c-4.53 1.99-7.05 7.12-7.05 13.69zm-46.83 12.26v-.7h1.89V1.4h-1.89V.66h4.91L157 21.52V1.4h-3.17V.66h5.25v.74h-1.21v24.86h-1.17L143.18 1.58v24h3.06v.7zm-10 0v-.7h1.92V1.39h-1.92V.66h6.4v.73h-1.95v24.17h1.95v.7zM22.36 42.48a.79.79 0 01-.9-.85v-.82c0-.82-.39-1.21-1.29-1.21h-9.28c-2.54 0-3 .39-3 2.5v9.75c0 2.11.47 2.5 3 2.5h9.28c.9 0 1.29-.39 1.29-1.21v-2.3h-5.62A.79.79 0 0115 50v-4.31a.79.79 0 01.89-.86h12.32a.79.79 0 01.9.86v8.81c0 4.61-1.6 6.13-6.4 6.13H6.55C2 60.63 0 58.76 0 54.39V39.56c0-4.37 2-6.24 6.55-6.24h16.16c4.8 0 6.4 1.52 6.4 6.12v2.19a.79.79 0 01-.9.85zm50.47-2.92V45c0 4.38-1.92 6.64-6.52 6.64h-.12l7.5 8.15a.5.5 0 01-.32.86h-7.68A1.61 1.61 0 0164.2 60l-6.71-8H52v7.76a.82.82 0 01-.94.86H45a.79.79 0 01-.89-.86V34.17a.79.79 0 01.89-.86h21.31c4.6 0 6.52 1.88 6.52 6.25zM52 45.73h10.3c2.26 0 2.61-.36 2.61-2.23v-1.68c0-1.87-.35-2.22-2.61-2.22H52zm63.38-12.41a.79.79 0 01.9.85v4.57a.79.79 0 01-.9.86H96.76v4.25h15.61a.82.82 0 01.9.86V49a.81.81 0 01-.9.86H96.76v4.49h18.65a.79.79 0 01.9.86v4.56a.79.79 0 01-.9.86H89.77a.79.79 0 01-.89-.86v-25.6a.79.79 0 01.89-.86h25.64zm34.67 27.31a1.2 1.2 0 01-1.25-.7l-10.2-20.37v20.21a.8.8 0 01-.89.86h-5.46a.79.79 0 01-.9-.86v-25.6a.8.8 0 01.9-.86h10.26a1.21 1.21 0 011.25.71L154 54.43V34.17a.83.83 0 01.94-.86h5.42a.8.8 0 01.9.86v25.6a.79.79 0 01-.9.86zm94.33-27.31c5.43 0 8.63 3 8.63 8.23V52.4c0 5.22-3.2 8.23-8.63 8.23h-19.32a.79.79 0 01-.9-.86v-25.6a.8.8 0 01.9-.86h19.35zM232 54.35h9.52c2.62 0 3.6-.78 3.6-3V42.6c0-2.18-1-3-3.6-3H232v14.75zm44 5.42a.82.82 0 01-.94.86h-6a.79.79 0 01-.89-.86v-25.6a.79.79 0 01.89-.86h6a.83.83 0 01.94.86v25.6zm41.57-26.45a.78.78 0 01.89.85v4.57a.79.79 0 01-.89.86h-18.69v4.25h15.6a.81.81 0 01.9.86V49a.81.81 0 01-.9.86h-15.6v4.49h18.65a.78.78 0 01.89.86v4.56a.79.79 0 01-.89.86h-25.64a.8.8 0 01-.9-.86v-25.6a.8.8 0 01.9-.86h25.64zm44.61 6.24V45c0 4.38-1.9 6.64-6.51 6.64h-.12l7.45 8.13a.49.49 0 01-.31.86H355a1.59 1.59 0 01-1.48-.66l-6.71-8h-5.46v7.76a.82.82 0 01-.94.86h-6.05a.8.8 0 01-.9-.86V34.17a.8.8 0 01.9-.86h21.27c4.61 0 6.51 1.88 6.51 6.25zm-20.79 6.17h10.3c2.26 0 2.61-.36 2.61-2.23v-1.68c0-1.87-.35-2.22-2.61-2.22h-10.3zM209.32 59.74l-10.74-25.6a1.19 1.19 0 00-1.24-.82h-8.9a1.18 1.18 0 00-1.29.82l-10.74 25.6c-.19.51 0 .9.55.9h6.44l9.29-21.55L202 60.64h6.79c.47 0 .71-.39.51-.9"/></g></g></svg>