<?xml version="1.0" encoding="utf-8"?>
<!-- Generator: Adobe Illustrator 24.0.1, SVG Export Plug-In . SVG Version: 6.00 Build 0)  -->
<svg version="1.1" xmlns="http://www.w3.org/2000/svg" xmlns:xlink="http://www.w3.org/1999/xlink" x="0px" y="0px"
	 viewBox="0 0 1280 720" style="enable-background:new 0 0 1280 720;" xml:space="preserve">
<g id="Layer_1">
	<g>
		<path style="fill:#49C5B8;stroke:#515151;stroke-width:8;stroke-linecap:round;stroke-linejoin:round;stroke-miterlimit:10;" d="
			M330.5,431.6l-0.7,114.6l-64.6-0.4l0.7-114.6l-234.9-1.5l0.3-50.3L261.3,61.2l71.5,0.5l-2,318.9l67.5,0.4l-0.3,51L330.5,431.6z
			 M267.7,131.3L86.6,379l179.6,1.1L267.7,131.3z"/>
	</g>
	<g>
		<path style="fill:#89DBD1;" d="M344.7,586.6c16.6-1,31.5-9.3,46.6-15.6c6.4-2.7,14.1-5.5,20.7-6.3c6.6-0.8,12.2,0.2,17.9,3.8
			c7.8,5,14.8,11.3,22.9,15.8c9,5.1,18.8,7.1,29.1,6.1c10.6-0.9,20.9-4.1,31.5-5.4c10.4-1.3,20.9,0,31.1,2.4
			c10.6,2.5,20.9,6.1,31.4,9.2c9.5,2.9,19.2,5.5,28.9,7.7c19.8,4.5,40,7.6,60.2,8.5c19.9,0.9,40.1-0.4,59.6-4.4
			c19.1-4,38.3-10.6,54.9-20.9c8.2-5,15.8-11.2,21.8-18.7c6.4-8.1,10.7-17.5,14-27.2c6.7-19.8,11.4-41.6,9-62.6
			c-0.6-5.3-1.6-10.5-3.2-15.7c-2-6.4-12.1-3.8-10.1,2.7c6.1,19.8,3.4,40.7-2,60.3c-2.6,9.5-5.5,19-10.3,27.7
			c-4.4,7.9-10.4,14.6-17.7,19.9c-15,11.1-33.3,18-51.3,22.6c-18.6,4.7-37.8,6.4-56.9,6.1c-19.6-0.3-39.1-2.8-58.3-6.8
			c-9.6-2-19.2-4.4-28.7-7.1c-10-2.9-19.8-6.2-29.8-9.1c-10.3-2.9-21-5.2-31.7-5.5c-10.7-0.3-21,2.2-31.4,4.2
			c-9.4,1.9-19.2,3.2-28.5-0.1c-8.3-2.9-15.2-8.9-22.2-14c-6.7-4.9-13.3-9-21.8-10c-7.2-0.9-14.7,0.7-21.5,2.9
			c-15.1,4.8-28.8,13.1-44.1,17.2c-1.8,0.5-3.6,0.9-5.4,1.2c-1.7,0.3-2.5,0.4-4.5,0.5c-2.8,0.2-5.3,2.2-5.3,5.2
			C339.4,584,341.8,586.8,344.7,586.6L344.7,586.6z"/>
	</g>
	<g>
		<path style="fill:#49C5B8;" d="M537.2,347.7c-23.2,12.7-44.8,31.8-53.5,57.5c-8.2,24.2-3.5,53.6,16.9,70.4
			c10.7,8.8,23.7,13.8,36.9,17.4c15.6,4.2,31.6,7.1,47.6,9.1c14.5,1.8,29.4,3.2,44.1,2.5c13-0.6,26.4-3.1,37.7-10
			c9.9-6.1,17.2-15.2,20.7-26.4c3.1-10,3-21,0.1-31c-2.9-10.3-8.8-19.5-17.3-26c-11.4-8.7-26.6-10.8-40.5-11.2
			c-26.3-0.6-55.8,5.5-69.8,30.3c-13.8,24.4-8.2,54.3,7.7,76.3c29.1,40.2,84.1,54.6,130.6,39.7c22.8-7.3,42.4-21.5,56.4-40.8
			c13.8-19.1,21.5-42.5,23-66c1.5-23.5-3.7-47.7-15.8-68c-12.1-20.3-30.6-36.6-51.8-47c-21.3-10.4-45.4-15.5-69-13.3
			c-25.9,2.4-54.1,12.8-67.9,36.3c-7.2,12.2-10.1,26.5-11.2,40.5c-1.2,14.5-0.3,29.1,2.4,43.4c5.1,27.7,17.4,53.9,35.3,75.7
			c17.1,20.6,39.2,36.8,63.8,47.2c12.8,5.4,26.9,10.1,41,10.7c15,0.7,28.2-6,38.4-16.7c9.2-9.6,16.4-21.4,22.2-33.2
			c6.1-12.3,10.8-25.2,14-38.5c6.4-26.3,7.1-53.8,2.8-80.5c-8.4-52-37.7-98.8-77.7-132.6c-19.6-16.6-41.5-30.2-65-40.4
			c-14.8-6.4-30-11.5-46.1-13.4c-15-1.8-30.1,0.1-44.4,4.9c-13.9,4.7-27,11.6-39.5,19.3c-11.6,7.2-22.8,15.3-32.5,25
			c-9.5,9.5-17.5,20.4-22.7,32.9c-5.9,14.1-7.7,29.7-7.2,44.9c0.9,26.5,7.4,53,17.6,77.4c9.7,23.2,23.2,44.9,40.6,63.2
			c18.1,19.1,40.3,33.6,65.1,42.4c29.2,10.4,61,13.4,91.8,13.9c16.5,0.3,33.1-0.4,49.6-2c15.2-1.5,30.5-3.4,45.3-7.3
			c14-3.7,27.4-9.5,38.7-18.7c10.8-8.8,19.3-20.3,25.6-32.6c12.8-24.9,18-53.7,15-81.5c-3-28.3-14-54.3-31.6-76.7
			c-17.3-21.9-39.8-39.9-63.5-54.5c-23.4-14.4-49-25.4-75.6-32.3c-26.1-6.7-53.3-9.5-80.2-7.3c-13.8,1.2-27.4,3.6-40.7,7.4
			c-13.4,3.9-26.7,9-38.3,16.7c-48.2,32-47.9,99.4-29.7,148.3c9.4,25.4,23.6,48.5,40.6,69.6c8.6,10.7,17.9,20.8,27.8,30.3
			c10.1,9.7,20.6,19.1,32.4,26.8c11.8,7.7,25.1,13.5,39.3,14.3c14.5,0.8,28.3-4.6,39.9-12.9c11.4-8.1,21.3-18.2,30.3-28.8
			c9-10.7,17-22.3,23.7-34.6c6.9-12.6,12.6-26,16.7-39.7c4.5-14.9,6.8-31.2,2-46.4c-4.5-14.2-13.9-26.3-23.1-37.7
			c-9.5-11.7-19.8-22.8-30.8-33.1c-20.5-19-45-38.7-74.3-39.6c-12.5-0.4-25.6,2.7-35.8,10.1c-10.7,7.7-17.6,19.5-18.3,32.8
			c-0.7,13.5,6.2,25.7,18,32.3c11.3,6.4,25,7.8,37.8,8c27,0.4,55.8-7.9,72.3-30.7c7.2-9.9,11.6-22.2,11.6-34.4
			c0-6-1.1-12.1-3.3-17.7c-1.4-3.5-3-6.9-6.1-9.1c-3.3-2.4-7.3-2.6-11.2-1.9c-6.5,1.2-13.1,3.7-19.3,6c-6.2,2.3-12.3,5-18.1,8
			c-11.5,5.9-22.4,13.1-32.1,21.6c-19.4,17.1-33.8,39.9-38.3,65.5c-4.4,25-0.4,52.2,15.1,72.9c8.6,11.5,20.2,20.4,35.3,18.1
			c13.9-2.1,25.8-12.5,34.8-22.6c18.3-20.5,28.9-47.2,30.6-74.5c1.8-28.5-6.5-57.3-21.6-81.4c-14.2-22.7-35.5-44.7-62.8-49.9
			c-28.7-5.5-58.1,6.4-80.6,23.7c-10.5,8.1-19.9,18.1-26.2,29.9c-6.6,12.5-9.4,26.7-8.4,40.8c2.2,30.2,19.1,56,39.2,77.7
			c9.8,10.6,20.2,20.7,31,30.3c10.7,9.5,22,18.4,34.6,25.3c13.5,7.3,28.8,12.9,44.4,12.6c13-0.2,25.4-4.9,35.7-12.8
			c9.8-7.6,17.4-18.1,20.9-30.1c3.6-12.3,2.9-25.9-1.6-37.8c-4.6-12.2-12.7-22.6-23.8-29.6c-11.4-7.3-25.3-10.5-38.7-10.5
			c-28.9,0.1-55.4,15.2-77.2,32.9c-20.5,16.7-39.2,39.6-41.7,66.9c-2.7,28.6,15.9,53.2,38.2,68.8c12.1,8.4,25.5,14.7,38.9,20.8
			c14.2,6.4,28.6,12.4,43.5,17.1c28.4,8.9,59.5,12.6,88.1,2.7c23.6-8.2,43.8-24.3,58.3-44.5c15-21,23.1-46.2,23.7-72
			c0.6-27.6-6.9-55.2-20.4-79.2c-12.8-22.8-32.8-48-60.9-50.5c-7.9-0.7-15.9,0.7-23.6,2.4c-7.5,1.7-14.9,3.8-22.3,6.1
			c-15.1,4.7-29.9,10.5-44.2,17.2c-23.8,11.2-49.6,25.6-60.1,51.2c-5.9,14.3-5.8,30.5-5.1,45.7c0.7,15.3,2.5,30.5,5.5,45.5
			c3,14.8,7.1,29.4,12.3,43.6c5,13.7,10.9,27.3,18.3,39.8c6.3,10.7,14.1,20.7,24,28.3c10.5,8,23.3,12.4,36.5,12.3
			c28.4-0.3,53.4-18.3,75-34.8c4.3-3.3-0.3-10.2-5.1-8.8c-22.5,6.7-44.9,13.4-67.4,20.1c-10.6,3.2-21.7,7.6-32.9,8
			c-10.3,0.3-19.4-4.2-27.9-9.6c-31.1-19.5-57.8-46.3-77.6-77.2c-11.3-17.5-20.4-36.3-27-56c-1.5-4.6-8.9-5.5-10.1-0.1
			c-8,35.9-11.2,81.7,23.9,104.6c17,11.1,38.6,15,58.5,17.6c19.7,2.6,39.8,2.8,59.5-0.6c21.8-3.8,42.6-12.6,59.4-27.1
			c2-1.7,2-5,0.5-6.9c-1.7-2.2-4.3-2.5-6.8-1.4c-23.1,10.7-48.3,18.9-74,17.4c-21.3-1.2-41.5-9.5-59.2-21.2
			c-18.4-12.3-34.2-28.4-47.7-45.9c-14.3-18.5-26.4-39.2-34.5-61.2c-9.1-24.8-13-51.7-7.5-77.8c1.4-6.6-7.9-9.3-10.1-2.9
			c-11.5,33.4-16.3,69.2-13.9,104.5c1.1,17.1,3.7,34.4,8.4,50.8c4.2,14.6,10.9,29.4,22.6,39.5c12.5,10.8,28.6,15,44.5,18
			c18.4,3.5,37,6,55.7,7.7c37.1,3.3,74.6,3,111.7-1c33.7-3.6,67.4-9.7,99.5-20.9c30.4-10.6,59.5-25.9,83.3-47.9
			c22-20.4,39-46.8,47.2-75.7c4-14.2,6-29.1,5.1-43.9c-1-16.6-5.7-32.3-12.5-47.4c-6.9-15.1-15.2-30.1-25.2-43.4
			c-10.2-13.4-22.6-24.1-37.7-31.5c-15.4-7.6-32-12.2-48.5-16.6c-17.9-4.8-36.1-8.9-54.3-12.3c-18.2-3.4-36.6-6.1-55-8
			c-17.9-1.9-36-3.5-54-3.7c-15.4-0.2-31.3,1.3-45.2,8.4c-14.9,7.6-24.2,21.5-30.4,36.6c-12.2,29.6-12.9,62.9-6.2,93.8
			c6.7,31,20.8,60.7,40.2,85.7c17.8,23,42.3,43.4,71.4,49.3c31.9,6.6,64.1-6.2,89.5-25.3c21.9-16.5,39.6-38.2,51.7-62.7
			c12.1-24.6,18.9-51.8,19.2-79.3c0.3-29.6-7.1-60.8-23.9-85.6c-16.8-24.8-43.2-41-71.9-48.5c-31.4-8.2-64.2-5.9-95.3,2.5
			c-17.1,4.6-33.6,11-49.7,18.2c-15.5,6.9-31.3,14.2-45.6,23.5c-14.2,9.2-25.6,21-34.1,35.7c-8.6,14.7-14.7,31.1-19.3,47.5
			c-9.7,34.1-12.5,70.7-7.1,105.8c2.6,16.7,7.6,33.3,16.3,47.9c7.5,12.6,17.5,23.2,29,32.2c22.9,17.7,51.2,27.7,79.1,34
			c16.7,3.7,33.9,6.9,51.1,6.9c17.2,0,33.7-4,48.9-11.9c14.1-7.4,26.6-17.5,38-28.6c11.7-11.4,22.4-23.8,32.1-36.9
			c19.5-26.2,34.7-56,42.8-87.7c8.6-33.9,9.4-70.1,0-103.9c-9.3-33.2-28.5-62.6-49.6-89.4c-10.1-12.9-21.7-25.2-36.6-32.5
			c-14.4-7.1-30.5-9.7-46.4-9.4c-16.2,0.3-32.2,3.5-47.7,7.9c-15.8,4.5-31.2,10.2-46.1,17.1c-29.5,13.5-57.3,31.7-81,53.9
			c-11.4,10.7-22.1,23.9-26.5,39.2c-4.4,15.3-0.6,31,10.7,42.2c11.3,11.2,27,17.6,41.8,22.6c16.6,5.7,33.9,9.3,51.3,11.6
			c17.4,2.3,34.9,3.4,52.4,3.8c17.4,0.4,34.9,0.5,52.3-0.6c33.2-2.2,67.3-8.8,96.1-26.3c24.6-15,45.5-37.5,54.8-65.1
			c2.4-7,3.9-14.3,4.5-21.7c0.7-8.3-0.9-16.5-6.8-22.7c-10.3-10.7-28-12.3-42-12.9c-30.9-1.4-62.3,7.7-87.4,25.8
			c-1.8,1.3-3.3,3.6-2.5,5.9c3.2,9.4,11.1,14.9,20.1,18.3c4.1,1.6,8.5,2.6,12.8,3.5c6.4,1.3,12.8,2.6,19.3,3.1
			c11.2,0.9,22.4-1.2,31.4-8.1c7.9-6.2,12.9-16.2,10.4-26.3c-2.7-10.8-12.7-18.8-23.9-17c-4.3,0.7-4.6,6.1-2.4,8.8
			c13.7,16.5,27.5,32.9,41.2,49.4c5.9,7.1,12.1,14,16,22.4c3.8,8.2,4.4,17.6,3.7,26.5c-0.7,9.1-2.8,18.1-5,27c-2.3,9.1-5,18.1-8,27
			c-5.9,17.5-13.1,34.5-21.6,50.9c-9.7,18.7-20.9,36.5-33.6,53.2c3,0,6,0,9.1,0.1c-11.8-22.7-19.6-47.3-23.3-72.5
			c-1.8-12.4-2.8-25.2-2.2-37.8c0.3-5.4,1.3-10.7,4.3-15.3c2.4-3.6,5.9-6.2,9.7-8.1c8.2-4.2,17.9-5.1,26.9-5
			c11.7,0.1,23.4,1.6,35.1,0c11-1.4,21.5-5.9,29-14.3c6.7-7.5,10.7-16.9,13-26.6c2.3-10,3.1-20.4,3.2-30.7
			c0.1-11.2,0.1-22.7-2.8-33.6c-3-11.2-9.5-20.6-19.2-27c-9.6-6.3-21.1-9.4-32-12.4C743,140.5,688.6,132,634,129.8
			c-40.5-1.6-88,0-119.6,29.1c-3.8,3.5-7.1,7.3-10.2,11.3c-2.7,3.6,1.7,9.3,5.9,7.8c42.1-15.9,87.2-22,132.1-19.8
			c45.3,2.3,90,12.9,132,29.8c20.9,8.4,41.2,18.4,60.5,29.9c19.6,11.8,37.6,26.1,49.8,45.8c11.8,19.2,18.6,41.3,21.9,63.5
			c3.4,22.4,2.8,45.5-1.5,67.7c-4.3,22.1-12,44.1-23.8,63.3c-5.3,8.6-11.9,16.7-21,21.3c-7,3.5-16.2,4.2-23.3,0.8
			c-9-4.2-11.3-13.9-11.2-23.1c0.1-12.4,2.1-24.9,3.1-37.2c2.2-26.2,3.4-52.6,1-78.9c-2.1-23-6.8-45.8-15.7-67.2
			c-8.8-21.5-21.6-40.8-38.3-57c-16.8-16.3-36.3-29.4-55.8-42.2c-20.3-13.4-41.3-26-63.5-36c-43.3-19.4-94.4-28.8-139.8-10.9
			c-5.5,2.2-10.8,4.6-15.4,8.3c-4.4,3.6-7.5,8.3-9.6,13.5c-2.2,5.2-3.4,10.7-4.6,16.2c-1.4,6.4-2.8,12.8-4,19.2
			c-4.8,25.5-7.9,51.3-9.3,77.2c-0.7,12.7-0.9,25.5-0.7,38.2c0.1,4.2,4.3,6.3,7.9,4.6c41.7-20.3,77.9-51.1,121.3-68.1
			c20.9-8.1,42.9-12.3,65.3-11.8c22.1,0.5,44.1,5.1,64.4,13.8c39.8,17,71.2,49.8,87.9,89.6c15.9,38,17.7,81.3,2.2,119.8
			c-7.2,17.9-18.4,34.4-32.9,47.2c-16.8,14.7-37.7,22.7-59.6,25.8c-22.2,3.1-45.4,1.7-67.4-2.3c-21.1-3.9-41.7-10.3-61.3-19
			c-40-17.8-75.8-44.1-106.2-75.5c-31.4-32.4-59.5-71.3-71-115.6c-5.7-21.8-6.8-44.9-0.9-66.7c2.8-10.5,7.6-21,16.9-27.2
			c9.8-6.6,22-9.9,33.2-13.2c12.6-3.7,25.4-6.7,38.4-8.9c6.3-1.1,12.7-2,19.1-2.7c3.3-0.4,6.5-0.7,9.8-0.9c2.4-0.2,5.4-0.8,7.8-0.1
			c1.2,0.4,1.4,1.4,1.5,2.4c0.2,2.1-0.4,4.2-1,6.2c-1.9,6.2-4.4,12.3-6.7,18.4c-4.7,12.9-9.4,25.8-14.1,38.7
			c-4.6,12.6-9.2,25.2-13.8,37.8c-1.7,4.7,3.9,7.7,7.7,6c17.6-8.1,34.4-17.9,50.1-29.3c8-5.8,15.7-11.9,23-18.4
			c7.1-6.3,13.5-13.3,20.6-19.5c5.8-5.1,15.1-12.3,23.3-8.5c-0.8-2-1.6-4-2.4-5.9c-12.2,30.1-32.4,56-52.7,81
			c-20.8,25.6-42.4,50.9-57.8,80.3c-3.7,7.1-9.5,16.5-5.3,24.6c2.1,4.1,6.4,6.1,10.7,7c4.6,0.9,9.3,1.5,14,1.7
			c18.8,0.8,37.3-4.1,54.5-11.4c17.1-7.2,32.9-17.1,48-27.7c15.3-10.7,30-22.3,44.4-34.1c28.4-23.4,55.8-48.1,85.9-69.4
			c3.7-2.7,7.5-5.3,11.4-7.8c-2.4-0.6-4.8-1.3-7.2-1.9c7.2,12.9,3.6,28.5-3.2,40.8c-7.7,13.9-18.7,26-29.1,37.9
			c-21.6,24.7-45,47.9-70,69.1c-11.3,9.6-25.1,18.8-31.6,32.6c-6.3,13.3-5.5,29.8,7,39.2c5.6,4.2,12.6,6.4,19.4,8.1
			c6.2,1.5,12.5,2.5,18.8,2.9c12.3,0.9,24.7-0.4,36.7-3.3c24.1-5.9,46.8-19.1,63.4-37.6c8.5-9.4,15.4-20.1,20.4-31.8
			c6.1-14.4,8.7-30.1,15.5-44.2c5.7-11.8,15.7-23.4,29.3-25.5c12.4-1.9,22.8,7.3,27.2,18.3c5.9,14.8,1.7,31.6-2.9,46.1
			c-4.3,13.5-9.9,26.5-16.8,38.9c-13.9,24.9-32.7,46.9-55.2,64.4c-2.7,2.1-5.5,4.4-8.7,6c-2.4,1.2-5,1.4-7,0.6
			c-4.5-1.9-7.8-7.5-10.6-11.7c-3.6-5.5-7.2-10.8-12.4-14.9c-5.3-4.3-11.3-7.6-17.9-9.7c-13-4.1-26.9-2.5-38.9,3.7
			c-11.4,5.9-20.5,15.2-29.8,23.8c-9.3,8.6-19.2,16.7-31.7,19.8c-13.6,3.4-27.8,0.6-40.5-4.5c-13.4-5.4-25.5-13.8-36.2-23.4
			c-11.1-9.9-20.9-21.1-29.2-33.5c-7.8-11.7-13.5-24.4-19.9-36.9c-5.9-11.6-12.8-23.4-23.2-31.6c-11.5-9.2-25.3-12.3-39.7-13.5
			c-13.7-1.1-27.8-0.6-40.9-5.1c-13.1-4.5-21.7-15.1-27.6-27.3c-6.3-12.9-10-27.2-12.4-41.3c-4.9-28.9-2.6-58.9,4.9-87.1
			c3.8-14.3,8.9-28.3,15.3-41.6c6.3-13.1,13.6-26.3,22.7-37.8c4.3-5.5,9.2-10.7,15-14.6c6.2-4.2,13.2-6.9,20.5-8.5
			c15.6-3.3,32.1-2.3,48-1.8c34.7,1.1,69.4,4.5,103.6,10.5c16.7,2.9,33.3,6.4,49.7,10.4c1-3.4,1.9-6.7,2.9-10.1
			c-51-7.4-104.2-14.9-154.3,1.2c-21.9,7-42.4,18.4-58.7,34.7c-15.9,16-27.1,35.7-35.5,56.5c-8.7,21.7-14.2,44.6-18.8,67.5
			c-5.3,26.6-8.9,53.5-11.6,80.5c-1.4,13.4-2.5,26.9-3.4,40.4c-0.9,12.2-2,24.6,0.8,36.6c2.8,12,10.2,21.4,19.8,28.8
			c9.1,7.1,19.3,12.9,29.4,18.4c41.4,22.5,87.3,35.6,134,40.9c23.5,2.7,47.2,3.3,70.8,2c24.2-1.3,48.8-4.1,72.4-9.9
			c22.2-5.4,42.8-14.8,60.7-29.1c16-12.8,29.2-28.9,39.6-46.4c22.9-39,30.9-84.5,27.3-129.3c-4-50.5-20.6-99.8-41.9-145.5
			c-18-38.6-42.4-76.9-79.7-99.4C678.2,59.8,630,58.7,587.2,72.3c-21.8,6.9-42.9,17.3-61,31.1c-9.4,7.2-17.9,15.6-24,25.8
			c-6.2,10.6-9.9,22.5-12.8,34.3c-6.4,25.8-12.4,52.1-14.7,78.6c-2.3,26.3,0.5,52.3,9.4,77.3c8,22.6,19.2,44.3,31.9,64.6
			c11.8,18.9,25.7,36.8,42.8,51.1c18.7,15.6,40.6,25.8,64.3,31.4c25.5,6,52.9,9,78.9,5.1c24.5-3.8,47.8-14.5,69.3-26.5
			c19.5-11,38.1-24.3,52.7-41.4c14.5-16.9,24.3-36.9,27.1-59.1c2.7-20.8-1.5-43.1-14.2-60c-7.5-9.9-17.1-17.6-27.2-24.8
			c-10.6-7.5-21.3-14.8-32-22.1c-21.8-14.8-43.8-29.2-66.1-43c-22.4-13.8-45.1-27.1-68.2-39.6c-22.4-12.1-45.2-23.6-69.3-32.1
			c-23.3-8.2-48.9-13.9-73.8-11.9c-12,1-23.8,4-34.3,10.1c-8.7,5.1-16.2,12.1-22.5,19.9c-12.6,15.8-20.9,34.4-28.6,52.9
			c-0.9,2.1,0.6,4.9,2.4,5.9c2,1.2,4.7,0.8,6.4-0.8c35.4-34.7,76.6-63.3,121.4-84.4c23.2-11,47.8-21.1,73.2-25.1
			c26.7-4.2,53.4,2.1,78.7,10.4c24,7.9,47,18.7,68.4,32.1c20.9,13,40.9,28.3,56.9,47.2c15.8,18.7,25.2,41.1,30.1,65
			c5,24.3,5.6,49.3,6,74.1c0.4,24.6,1.4,50.9-8.8,73.9c-9.7,21.9-29,37.2-48.3,50.3c-41.1,27.9-88.5,49.2-138.5,53.1
			c-25.6,2-51.9,0.1-74.5-13.3c-10.7-6.4-20.3-14.4-29.5-22.7c-9.5-8.5-18.8-17.2-27.6-26.3c-17.5-18.1-33.3-37.9-44.8-60.3
			c-11.1-21.6-18.1-45.2-21.6-69.3c-3.6-24.2-3.6-49-1-73.4c0.6-6,1.5-12,2.4-18c1-6,1.9-12.2,3.8-18.1c1.7-5.3,4.7-9.3,9.4-12.2
			c4.9-3,10.4-4.8,15.8-6.7c50.5-17.7,104.1-25.8,157.6-24.1c13.2,0.4,26.3,1.5,39.3,3.1c5.9,0.7,7.2-9.1,1.5-10.3
			c-60.3-13-121.3-26.1-183.3-26.3c-15,0-30.2,0.4-45,2.5c-6.9,1-13.8,2.7-20,6.1c-5.6,3.2-10.2,7.7-14.1,12.7
			c-8.2,10.7-13.4,23.9-17.1,36.8c-3.8,13.3-5.8,27-7,40.7c-1.2,13.7-1.6,27.5-1.8,41.2c-0.1,7.3,0.7,14.5,5.6,20.3
			c4.2,5,10.4,8.7,15.8,12.3c22.1,14.5,48.2,24.9,75,22.8c24.4-1.9,46.9-13,65.5-28.7c19.6-16.6,34.1-38.1,44.7-61.3
			c11.6-25.4,19-52.4,26-79.4c1.8-6.8,3.5-13.7,5.4-20.5c0.7-2.6,1.5-5.4,3.6-7.3c2.1-1.9,5-2.7,7.7-3.4
			c14.7-3.7,29.6-6.8,44.3-10.2c12.5-2.9,25-6.1,37.8-7.2c11.5-0.9,23.7-0.3,33.9,5.6c10.7,6.2,16.7,17.2,21.5,28.1
			c5.7,12.8,10.9,25.9,16,38.9c10.9,27.4,20.7,55.3,26.4,84.3c5.2,26.1,6.4,52.9,3.7,79.4c-2.7,25.8-9.2,51.2-19,75.1
			c-4.9,12-10.8,23.6-17.4,34.7c-6.6,11.1-13.9,22.3-22.7,31.8c-8.7,9.4-19.3,15.2-32,17c-12.4,1.7-25.3,0-37.4-2.7
			c-28.4-6.1-56.3-15.7-82.7-27.8c-20.7-9.5-43.5-23.2-45.5-48.4c-1.9-23.1,10.9-45.6,27.5-60.9c16.8-15.5,39.9-26,63.1-24
			c10.5,0.9,23.3,4.7,30,13.4c7.3,9.6,4.5,23.3-1.4,32.8c-6.8,11-17.5,19.7-27.6,27.5c-10.2,7.9-21.6,15.2-34.1,18.7
			c-12.2,3.3-24.5,1.9-35-5.3c-10.1-6.9-17.4-17.4-24.1-27.4c-15.4-22.9-28.3-47.5-38.2-73.1c-4.9-12.8-9.2-25.8-12.7-39.1
			c-1.8-6.8-3.4-13.6-4.8-20.4c-1.4-6.7-3-13.6-2.2-20.5c1.3-10.1,8.8-17.7,17.2-22.7c9.9-5.9,21-9.1,32.1-11.9
			c28.4-7,57.8-10.2,87-9.5c28,0.7,56.5,4.5,83.4,12.9c11.3,3.5,22.7,8.3,31.6,16.3c8.6,7.7,14,17.8,16.3,29.1
			c4.7,23.9-3.7,49.1-13.4,70.6c-11.1,24.5-25.8,47.4-42.3,68.6c-8.3,10.7-17.2,21-26.5,30.9c-8.6,9.1-17.7,17.8-27.9,25
			c-10,7.1-20.9,12.9-32.8,16.2c-13.9,3.8-28.5,3.6-42.7,2.3c-26-2.4-51.5-10.1-74.6-22.2c-11.7-6.1-22.9-13.4-33.1-21.8
			c-10.4-8.6-19.6-18.5-25-31.1c-5.4-12.6-7.6-26.9-9.2-40.4c-1.7-14.5-2.2-29.2-1.5-43.8c1.4-28.1,6.9-57.1,18.1-83
			c5.2-12.1,12.3-23,22-31.9c9-8.3,19.6-14.6,30.6-19.7c11.2-5.2,22.9-9.2,34.7-12.8c14.4-4.3,28.9-8.1,43.6-11.3
			c28.1-6,56.7-9.8,85.4-11.4c6.7-0.4,6.9-10.6,0.1-10.5c-58.9,0.8-117.8,7.4-175.5,19.7c-14.2,3-28.3,6.4-42.3,10.1
			c-11.6,3.1-23.2,6.7-33.7,12.7c-10.6,6-19.6,14.5-25.2,25.3c-5.8,11.2-8.1,23.7-9.3,36.2c-1.5,15.6-1.9,31.3-2.8,46.9
			c-0.9,17.2-1.8,34.4-2.7,51.6c-0.3,6,8.6,7,10.3,1.5c13-42.3,29.3-85.6,58.5-119.7c8.2-9.6,17.3-18.3,27.3-25.9
			c-2.7-2.1-5.5-4.3-8.2-6.4c-22.7,30.1-40.5,63.8-52.8,99.4c-3.5,10-6.5,20.2-9,30.4c3.4,0.5,6.9,1,10.3,1.5
			c2.7-24.1,7.5-48,14.4-71.2c3.4-11.5,7.4-22.9,11.8-34.1c3.9-9.8,8.1-19.7,14.2-28.4c12.9-18.2,35.2-22.6,55.9-26.1
			c24.2-4.1,48.9-5.7,73.5-4.9c24.3,0.7,48.7,3.7,72.3,9.3c20.8,4.9,40.9,12.8,56.4,28.1c28.2,28,37.5,70,43.6,107.9
			c7.8,49,9,99.1,3.7,148.5c-0.7,6.1-1.4,12.3-2.3,18.4c3.5,0,7,0,10.5,0.1c3.6-35.2-6.8-70.3-21.8-101.9
			c-13.3-27.9-31.3-54.1-54.4-74.9c-23.8-21.4-53.1-37-84.8-42.5c-30.4-5.3-62-1.5-89.2,13.8c-24.5,13.7-44.5,35.8-53.9,62.4
			c-1.2,3.3-2.1,6.7-2.9,10.1c-1.4,5.8,6.3,9.1,9.6,4.1c12.2-18.4,17.7-40.3,29.6-58.9c9.9-15.5,24.1-27.8,39.9-36.9
			c16.3-9.4,34.3-15.7,52.7-19.9c9.4-2.1,18.9-3.8,28.5-4.8c10-1,20.4-1.4,30.3,0.4c9.6,1.8,18.9,5.4,26.2,12.1
			c7.6,6.9,12.9,15.7,17.3,24.8c9.4,19.6,15.3,41.3,17.4,63c2.2,22.1,0.8,44.5-4.4,66.1c-2.5,10.1-5.6,20.2-11.7,28.8
			c-5.8,8.2-14.7,13.5-24,17c-37.7,14.1-85.1,16.8-118.8-8.4c-29.1-21.8-42.8-60.1-44.1-95.5c-0.4-10.8,0-21.8,2.9-32.2
			c2.6-9.8,7.6-18.5,14.4-25.9c13.8-14.9,32.9-25.3,51.7-32.3c37.5-13.8,82-13.8,114,12.7c13.7,11.3,24.5,26.3,29.2,43.5
			c5.5,20.2,0.8,41.1-7.8,59.8c-4.6,10-10.1,19.6-16,29c-5.6,8.9-11.8,17.5-20.1,24.1c-13,10.3-36.3,14.7-45.9-2.3
			c-3.5-6.3-4-13.4,0-19.3c-3.2-0.4-6.4-0.9-9.6-1.3c1.9,10.3-5.2,21.3-15.2,24.1c1.3,0.2,2.7,0.4,4,0.6c-10.3-5.8-14-18.1-15.8-29
			c-1.8-10.8-0.9-26.3,11.2-31c1.2-0.5,2.4-0.7,3.7-0.8c1.2-0.1,2.2,0,2.7,0.2c1.9,0.4,3.6,1.3,4.7,2.3c3.3,2.8,5.2,6.3,6.2,10.5
			c2.2,9-2.3,17.6-10.6,23.1c-9.4,6.2-21.4,8.6-32.5,8.2c-10.5-0.4-22-4.3-25.9-15c-4.1-11.4,0.7-23.7,8.3-32.3
			c8.7-9.8,20.5-16.7,32.1-22.6c27.9-14.2,59.6-20.3,90.7-18c0-3.5,0-7,0.1-10.5c-24.8,1.1-49.5,2.1-74.3,3.2
			c-18.9,0.8-39.1,1.6-55.9,11.2c-8.5,4.8-15.5,12.1-19.7,20.9c-4.7,9.6-6.6,20.3-6.9,30.9c-0.7,21.1,5.3,42.6,16.7,60.4
			c12.2,19,32.5,32.2,42.1,52.9c1.1-2.6,2.1-5.1,3.2-7.7c-14.9,4.1-29.4-3.4-41.4-11.7c-12.3-8.5-23.9-18.5-34.6-28.9
			c-10.6-10.3-20.1-21.8-26.5-35.2c-5.3-11.2-7.6-23.7-6.5-36c1.1-13.4,6.9-26,17.5-34.4c-2.9-1.7-5.8-3.4-8.7-5.2
			c-9.1,23.1-17.9,49.9-3.8,73c12,19.7,34.5,30.3,54.9,39c24.1,10.3,49.5,17.6,75.3,21.6c12.6,2,25.4,3.5,38.1,2.1
			c12.1-1.4,23.4-5.4,33.1-12.9c17.4-13.5,26.6-34.7,34.3-54.7c9.5-24.8,17.5-50.4,22.2-76.6c8.7-48.2,5.9-99.2-16.8-143.3
			c-5.4-10.4-11.9-20.2-19.3-29.1c-7.5-9.1-16.3-17.6-26.8-23.2c-21.7-11.7-48.7-8.5-71-0.3c-21.1,7.8-39.9,20.8-56.2,36.2
			c-16.9,15.9-31.8,34.4-44.3,53.9c-6.9,10.7-12.8,22.2-16.8,34.3c-3.9,11.9-5.8,24.5-5.9,37c-0.2,24.1,6.2,49.2,18.5,70
			c10.9,18.4,27.5,35,48.4,41.3c10.6,3.2,22.1,3.3,32.8,0.3c11.8-3.3,22.4-9.8,32.2-16.9c9.8-7.1,19.9-14.7,22.4-27.2
			c2.3-11.5-1.1-23.1-6.3-33.3c-2.6-5-5.7-9.8-9.2-14.2c-3.7-4.7-8.2-8.9-14-10.7c-11.7-3.7-24,3.7-31.7,12
			c-7.3,7.8-12.1,17.9-13.7,28.4c-0.8,5.6-0.8,11.1,0.1,16.6c0.5,3.3,1.1,5.7,4,7.7c2.7,1.8,5.5,3.4,8.4,4.8c11.4,5.4,23.8,8,36.3,6
			c10.5-1.7,20.3-7.1,28.1-14.4c7.7-7.2,13.4-16.4,16.8-26.4c0.7-2.2-0.5-4.8-2.4-5.9c-2.1-1.3-4.5-0.7-6.4,0.8
			c-17,13.8-24.9,36.5-21.2,57.9c0.5,2.8,3.9,4.4,6.4,3.7c2.9-0.8,4.2-3.6,3.7-6.4c-3.1-17.8,4.5-36.4,18.4-47.7
			c-2.9-1.7-5.8-3.4-8.7-5.2c-4.6,13.4-14.8,25.5-28.1,30.9c-15.8,6.4-33.1,1.6-46.8-7.5c0.8,1.1,1.6,2.1,2.4,3.2
			c-4.1-16.1,2.3-35.1,16.3-44.5c3.7-2.5,8.2-4.7,12.8-4.2c4.3,0.4,7.4,3.5,10.1,6.6c5.9,6.9,10.7,15.5,13.2,24.2
			c2.4,8.3,2.5,17.5-3,24.6c-3,3.9-7.2,6.9-11.2,9.8c-4.3,3.2-8.6,6.2-13.2,9c-8.3,5-17.6,9.3-27.4,10.2c-8.3,0.7-16.5-0.7-24.1-4
			c-16.4-7.1-29.2-21.4-37.8-36.8c-9.9-17.6-15.2-38.1-15.7-58.2c-0.6-21.5,5.1-41.9,15.5-60.6c9.8-17.5,22.3-33.8,35.8-48.6
			c25.1-27.3,58.4-51.5,96.9-53c10.7-0.4,21.4,1.2,30.8,6.5c8.7,4.8,15.9,11.7,22.3,19.2c12.7,14.7,22.2,32.2,28.6,50.6
			c13.9,40.1,13.3,83.4,4.4,124.5c-4.8,22.4-11.9,44.2-20.1,65.6c-6.4,16.7-13.9,34-27.2,46.4c-15.2,14.1-35.5,15.4-55.1,13.2
			c-22-2.4-43.9-7.8-64.9-15.1c-10.6-3.7-21-7.9-31.1-12.7c-8.3-4-16.5-8.4-23.9-14c-6.9-5.3-12.9-11.8-16.6-19.7
			c-4.4-9.2-4.5-19.9-2.7-29.7c2-10.6,5.9-20.8,9.8-30.8c0.8-2.1-0.5-4.8-2.4-5.9c-2.2-1.3-4.5-0.7-6.4,0.8
			c-22.3,17.7-25.4,51.3-15.6,76.4c5.9,15.1,15.6,28.2,26.8,39.8c11.3,11.7,24.1,22.5,37.2,32.1c15.2,11.2,33.9,20.8,53.2,15.5
			c3.5-1,4.6-4.7,3.2-7.7c-8.3-17.8-24.2-30.1-36.4-45c-12.1-14.9-19.5-33.9-20.8-53.1c-1.2-17.9,1.7-39.2,17.5-50.3
			c14.1-9.9,32.6-11.2,49.2-12c26.5-1.2,52.9-2.3,79.4-3.4c6.8-0.3,6.8-10,0.1-10.5c-36-2.7-72.7,5.7-104,23.7
			c-14.8,8.5-29.7,19.4-36.3,35.7c-6.1,15.3-2.5,34,11.9,43.2c13.1,8.3,31.3,7.6,45.8,3.4c13.8-4,28.6-13.7,31-29
			c2.1-12.9-4.4-28.7-17.8-32.6c-7.8-2.2-15.9,0.5-21.8,5.7c-6.7,5.8-9.8,14.4-10.6,23c-0.8,8.7,0.8,18.1,3.5,26.4
			c2.4,7.5,6.1,15,12.1,20.3c1.4,1.3,3,2.5,4.6,3.5c2.4,1.5,4.4,1.7,7,0.8c3.8-1.3,7.1-3.3,10.1-5.9c5.5-4.7,9.5-11.6,10.8-18.7
			c0.7-4,0.7-7.9,0-11.9c-0.9-4.8-11.9-4.7-9.6-1.3c5.5,8-5.3,18.3-1.5,26.9c3.9,9,11.7,15.8,21.2,18.4c10.9,3,22.6,0.8,32.5-4.2
			c10.3-5.2,18.4-13.7,25.1-22.8c6.9-9.3,12.9-19.6,18.3-29.9c5.7-10.8,10.6-22.1,13.5-33.9c5.1-21.1,2.8-42.6-7.5-61.8
			c-9.3-17.4-24.3-31.9-41.6-41.4c-19.4-10.6-41.9-14.6-63.8-13.1c-23.4,1.6-46.2,8.9-66.7,20c-18.9,10.2-37.5,24.3-46.3,44.5
			c-9.1,20.8-8.4,45.3-4.7,67.3c3.3,19.6,10.3,38.9,21.4,55.4c11.5,17.1,27.1,30.8,46.2,38.9c21.4,9.1,45.2,10.2,68,7.2
			c11.3-1.5,22.5-4.1,33.4-7.6c10.8-3.5,21.4-8.4,29.5-16.5c8.1-8.2,12.9-18.9,16.2-29.8c3.5-11.4,5.6-23.3,6.9-35.1
			c2.6-23.9,0.9-48.3-4.8-71.6c-2.9-11.7-6.8-23.2-11.7-34.3c-4.5-10.1-10-19.9-17.5-28c-15.9-17.1-39.2-21.1-61.5-19.6
			c-20.8,1.4-41.8,5.7-61.4,12.6c-19.3,6.8-37.7,16.3-53.2,29.8c-7.6,6.6-14.4,14.3-20,22.6c-6.5,9.5-11.1,20.1-15.7,30.7
			c-4.5,10.5-9.1,20.9-15.4,30.5c3.2,1.4,6.4,2.7,9.6,4.1c6-25.4,22.6-47.1,44.2-61.5c23.9-15.9,52.4-21.7,80.8-18.6
			c29.8,3.3,58.4,16.3,81.5,35.2c22.8,18.7,40.9,42.6,54.5,68.7c15.1,28.8,26.4,61.1,26,93.9c-0.1,4.2-0.3,8.3-0.7,12.4
			c-0.3,2.8,2.6,5.3,5.2,5.3c3.2,0,4.9-2.4,5.3-5.2c7.2-51.2,7.2-103.1,0.5-154.3c-5.5-41.5-14-86.4-41.1-119.7
			c-14.1-17.3-33-28.5-54.2-35.1c-23.6-7.4-48.8-11-73.4-12.8c-25.6-1.8-51.3-1.1-76.7,2.2c-12.1,1.5-24.2,3.4-36,6.5
			c-10.7,2.8-21.2,7-29.9,13.9c-8.8,7-15,16.8-19.9,26.8c-5.2,10.8-9.4,22.1-13.3,33.3c-8.2,23.7-14.3,48.1-18,72.8
			c-1,6.3-1.8,12.5-2.5,18.8c-0.7,5.9,8.9,7.1,10.3,1.5c8.9-35.7,23.3-69.9,42.7-101.1c5.6-9,11.6-17.7,18-26.2
			c1.6-2.1,0.6-5.4-1.3-6.8c-2.3-1.7-4.8-1.3-6.9,0.4c-37.1,28.3-59.9,70.6-76,113.5c-4.6,12.1-8.6,24.4-12.4,36.8
			c3.4,0.5,6.9,1,10.3,1.5c1.5-29.2,2.9-58.4,4.6-87.5c0.7-11.8,1.8-23.7,5.7-34.9c3.6-10.4,10.2-19.3,19.4-25.5
			c9.3-6.3,20-10.1,30.8-13.2c13.2-3.8,26.6-6.9,39.9-9.9c27.9-6.2,56.1-11.1,84.5-14.6c31.8-3.9,63.9-6,96-6.5c0-3.5,0-7,0.1-10.5
			c-31.1,1.7-62.1,5.9-92.5,12.7c-14.9,3.3-29.7,7.3-44.3,11.8c-12.4,3.9-24.6,8.4-36.3,14.3c-11.4,5.7-22.2,12.9-31.3,21.9
			c-10.1,10-17.2,22.2-22.6,35.3c-11.4,27.6-17.1,58.1-18.1,87.9c-0.5,14.9,0.2,29.9,2.1,44.7c1.9,14.7,4.6,29.6,10.9,43.2
			c6,12.9,15.9,23.5,26.9,32.3c10.9,8.8,22.6,16.5,35,23c24.6,12.8,51.5,20.7,79.1,23.2c14.9,1.4,30.2,1.4,44.7-2.5
			c12.7-3.3,24.7-9.4,35.4-17c22-15.5,40.1-36.3,56.7-57.3c17.6-22.3,33.2-46.3,44.9-72.3C796,299,804.3,273,800,246.9
			c-2-12.4-7.7-24.2-16.5-33.3c-9.1-9.3-20.8-15.3-32.9-19.7c-13.2-4.8-27-7.8-40.8-10.2c-14.8-2.6-29.7-4.3-44.7-4.9
			c-30.5-1.3-61.2,1.5-91,8.2c-12.5,2.9-25.1,6.2-36.5,12.1c-9.7,5.1-18.9,12.5-23.4,22.7c-6,13.6-1.8,28.7,1.4,42.5
			c3.2,13.9,7.2,27.7,12,41.2c9.5,27,22,52.9,37.3,77.1c14,22.1,31.3,48,60.4,48.5c13.9,0.3,27.4-5.3,39.2-12.4
			c12-7.2,23.3-16.4,33.3-26.2c9.7-9.6,17.4-21.1,18.9-35c1.5-14-5.2-26.6-17.3-33.6c-22.3-12.9-50.3-9.5-72.6,1.5
			c-22.6,11.2-41.1,30.5-50.5,54c-4.7,11.7-6.6,24.4-4.7,36.8c1.9,12.6,8.7,23.9,18,32.5c9.3,8.6,20.6,14.6,32.1,19.9
			c14.1,6.4,28.5,12.2,43.1,17.1c14.2,4.8,28.7,9,43.3,12.1c13.5,2.8,27.2,4.4,40.9,2.6c13.5-1.8,25.7-7.9,35.3-17.6
			c9.6-9.6,17.4-21.3,24.4-32.8c28.5-46.2,43-100.9,41.2-155.1c-1-29.6-7.2-58.6-16.1-86.7c-9.1-28.4-20.4-56.4-32.3-83.7
			c-5.3-12.2-12.2-24-23.6-31.5c-10.7-7-23.8-9-36.3-8.6c-13.4,0.5-26.5,3.5-39.5,6.4c-15.3,3.5-30.6,7-46,10.5
			c-7,1.6-14.1,3.3-18.7,9.3c-4.1,5.5-5.2,12.9-6.9,19.3c-3.7,14.1-7.3,28.2-11.4,42.1c-7.9,26.8-17.7,53.6-33.8,76.6
			c-13.9,19.8-32.7,36.8-55,46.5c-10.7,4.7-22.4,7.4-34.1,7.6c-13.6,0.2-27-3-39.5-8.2c-12.2-5-24-12.1-34.4-20.2
			c-2.3-1.8-4.6-3.9-5.6-6.7c-1.2-3.2-1.1-6.7-1-10.1c0.1-7,0.3-14,0.6-21c1.1-27.8,4-56.9,17.3-81.9c2.9-5.4,6.2-10.7,10.7-14.9
			c4.7-4.4,10.4-6.9,16.6-8.4c7.2-1.7,14.6-2.1,22-2.6c7.8-0.5,15.5-0.8,23.3-0.8c31.7-0.2,63.3,3.1,94.5,8.1
			c30.2,4.9,60.1,11.3,90,17.7c0.5-3.4,1-6.9,1.5-10.3c-55.3-6.8-111.8-3-165.7,11.1c-13.3,3.5-26.5,7.5-39.4,12.3
			c-5.9,2.2-11.7,4.6-16.8,8.5c-5,3.9-8.3,9.1-10.3,15c-2.1,6.1-3,12.6-4,18.9c-1.1,6.4-2,12.9-2.7,19.4
			c-1.4,12.8-2.1,25.7-1.9,38.6c0.3,25.4,3.9,51,11.4,75.3c7.7,24.6,19.6,47.5,35.1,68c16,21.1,34.9,39.8,54.7,57.4
			c9.8,8.7,20,17.2,31.5,23.8c11.8,6.8,24.7,11.1,38.2,13.1c26.1,3.8,53.3,1.1,78.9-5.1c25.5-6.1,50-16.2,73.1-28.6
			c11.4-6.2,22.4-12.9,33.1-20.2c10.3-7.1,20.5-14.6,29.5-23.3c8.9-8.7,16.7-18.8,21.8-30.2c5.4-12.1,8.2-25.1,9.5-38.3
			c1.3-13.2,1.1-26.4,0.9-39.6c-0.2-13-0.5-25.9-1.4-38.9c-1.7-25.6-5.8-51.2-16.2-74.8c-10.4-23.5-27.6-42.9-47.3-59.1
			c-20.4-16.7-42.9-30.9-66.8-42.1c-24.1-11.3-49.9-20.5-76.3-24.9c-14.4-2.4-28.6-2.9-43.1-0.8c-13.8,1.9-27.2,5.9-40.3,10.7
			c-48.6,17.7-93.9,44-133.7,77c-9.6,7.9-18.8,16.3-27.7,24.9c2.9,1.7,5.8,3.4,8.7,5.2c7.5-17.9,15.5-36.4,28.3-51.2
			c6-7,13-13,21.3-17.2c10.2-5.2,21.7-7.1,33.1-7.2c48.8-0.6,94.7,23.3,136.4,46.1c44.6,24.4,87.5,51.6,129.5,80.1
			c10.3,7,20.6,14,30.8,21.3c9.1,6.5,18.3,13.6,24.8,22.9c11.2,16,14.3,36.3,11.1,55.3c-7.3,43-42.9,72.2-79.3,91.8
			c-20.7,11.1-43.1,20.9-66.7,23.3c-13,1.3-26.2,0.8-39.2-0.7c-12.1-1.4-24.1-3.5-35.9-6.7c-21.7-6-41.4-16.3-58.1-31.5
			c-15.8-14.4-28.5-31.8-39.4-50.1c-11.8-19.9-22.6-41-29.6-63.1c-3.7-11.7-6.2-23.7-7.1-35.9c-0.9-12.8-0.4-25.7,1-38.4
			c1.5-12.9,3.9-25.7,6.6-38.4c2.6-12.3,5.3-24.6,8.6-36.7c3-10.9,6.8-21.6,13.4-30.9c6.3-8.9,14.9-16.1,23.9-22.2
			c35.4-24.1,79.7-37.7,122.6-32.5c20.6,2.5,40.3,9.9,57.4,21.6c16.6,11.3,30.5,26.5,42.1,42.9c12.1,17.2,21.8,35.8,30.4,54.9
			c9.8,21.9,18.3,44.5,25,67.6c13.1,45.1,19,93.9,7.3,140c-9.5,37.4-30,73.5-61.2,96.9c-17.7,13.2-37.9,21-59.3,25.7
			c-22.6,4.9-45.8,7.4-68.8,8.3c-45,1.8-90.4-3.2-133.6-16.4c-21.4-6.6-42.2-15.2-61.8-25.9c-9.5-5.2-19.3-10.7-27.9-17.5
			c-8.9-7.1-14.6-15.8-16.2-27.1c-1.7-11.7,0-23.9,0.8-35.6c1-12.8,2.1-25.6,3.4-38.3c2.7-26,6.4-52,11.6-77.6
			c8.5-41.7,20.7-86.3,52.2-116.9c32.9-32,80.8-40.9,125.2-39.8c25.5,0.7,50.9,4.3,76.1,7.9c2.8,0.4,5.6-0.6,6.5-3.6
			c0.7-2.7-0.9-5.8-3.6-6.5c-34.7-8.5-69.9-14.5-105.5-18c-17.7-1.8-35.4-2.9-53.2-3.4c-16.4-0.5-33.4-1.2-49.5,2.6
			c-15.5,3.6-28.4,12.5-38.3,24.8c-9.6,11.9-17.4,25.3-24.1,39c-13.5,27.7-22.1,57.8-24.4,88.5c-2.2,30.1,1.8,61.3,13.8,89.2
			c5.7,13.3,14.4,26,27.4,32.9c13,6.9,28,7.7,42.4,8.5c13.6,0.8,27.8,1.6,39.5,9.3c10.8,7.1,17.6,18.7,23.4,29.9
			c6.5,12.7,12.3,25.6,20.1,37.6c8.5,12.9,18.6,24.8,30,35.2c21.9,19.9,51.2,37.1,81.9,33c14.1-1.9,26-9.1,36.6-18.3
			c9.7-8.3,18.3-18.1,29.1-24.9c10.7-6.8,22.8-9.2,35.1-5.5c5.8,1.8,11.4,4.8,15.9,9c4.6,4.3,7.6,9.7,11.1,14.8
			c3.7,5.3,8.1,10.6,14.5,12.7c7.7,2.6,14.9-1.2,20.9-5.7c11.9-8.8,22.8-18.7,32.7-29.8c19.7-22,35-47.9,44.7-75.8
			c5.5-15.8,10-32.8,7.1-49.5c-2.4-13.9-11.4-27-24.8-32.3c-14.1-5.5-29.5,0.7-40,10.6c-11.6,10.9-17,26.2-21.6,41.1
			c-4.2,13.6-8.3,26.7-16.2,38.7c-6.7,10.1-15.2,19-24.8,26.4c-19.3,14.8-43.5,23.6-67.9,24c-12.1,0.2-25.3-1.3-36.4-6.3
			c-6-2.7-10.5-7.1-11.5-13.8c-1-6.1,0.9-12.5,4-17.7c3.8-6.4,9.4-11.5,15.1-16.3c6.2-5.3,12.5-10.4,18.6-15.7
			c12.6-11,24.8-22.4,36.6-34.3c11.8-11.9,23.1-24.2,33.9-37c10.6-12.4,21.9-25.2,28.4-40.3c6.1-14,7.4-30.5-0.2-44.2
			c-1.3-2.4-4.8-3.5-7.2-1.9c-30,20-57.3,43.6-84.9,66.8c-27.2,22.9-55.1,46.1-86.4,63.3c-15.7,8.6-32.7,15.6-50.5,18.2
			c-8.3,1.2-16.9,1.3-25.1,0c-2.1-0.3-7.2-0.4-7.6-3.1c-0.5-3.1,1.9-7,3.2-9.6c14.2-28.5,34.5-53.2,54.5-77.7
			c20.1-24.7,40.5-49.8,54.1-78.8c1.8-3.7,3.4-7.5,4.9-11.3c0.8-2-0.5-5-2.4-5.9c-19.8-9.2-36.2,10.4-49,22.6
			c-14.7,14-30.9,26.3-48.2,36.9c-9.8,6-20,11.4-30.4,16.2c2.6,2,5.1,4,7.7,6c9.8-27,19.6-53.9,29.4-80.9
			c3.3-9.2,11.6-24.6,2.2-32.9c-5.1-4.5-12.2-3.3-18.5-2.8c-6.8,0.6-13.7,1.4-20.5,2.4c-13.5,2-26.8,4.7-40,8.3
			c-12.6,3.4-25.9,7.1-37.5,13.2c-11.2,6-18.8,15.4-23.5,27c-4.6,11.2-6.6,23.7-7.2,35.8c-2.6,49.3,21.7,96.2,51,134.2
			c28,36.2,62.7,67.7,102,91.3c39,23.4,83.1,38.9,128.7,41.7c25.3,1.6,51.4-0.4,75-10.2c20.1-8.3,36.9-22.4,49.7-39.8
			c25.8-35,33.6-80.7,25.5-122.9c-8.5-44.4-34.2-85.2-70.8-111.8c-38-27.5-87-38.5-133.1-31.4c-48.7,7.5-88.8,37.5-129.9,62.3
			c-10,6-20.2,11.7-30.6,16.9c2.6,1.5,5.3,3.1,7.9,4.6c-0.4-26.1,1-52.3,4.2-78.2c1.6-13,3.7-25.9,6.2-38.8c1.3-6.4,2.6-12.7,4.1-19
			c1.2-5.1,2.5-10.3,5.2-14.8c5.5-9.2,17.8-12.8,27.5-15.6c11.3-3.3,23-4.9,34.7-5.2c24.2-0.6,48,4.3,70.6,12.7
			c22.7,8.4,44,20.2,64.5,33c19.9,12.5,40,25.4,57.9,40.7c17.6,15,32,32.6,42.1,53.5c9.7,20.2,15.4,42.5,18.1,64.7
			c3.1,26.3,2.4,52.9,0.4,79.3c-1,12.9-2.6,25.7-3.5,38.5c-0.8,11.1,0.2,22.7,7.6,31.5c6.2,7.3,16.5,10.6,25.9,10.1
			c10.6-0.5,20-5.2,27.8-12.3c8-7.4,13.9-17,18.9-26.6c5.4-10.4,9.9-21.3,13.5-32.5c14.1-44.3,13.8-94.2-3-137.8
			c-8.5-22-21.4-41.4-39.6-56.5c-18-14.9-38.8-26.3-59.8-36.4c-41.6-20.1-86.2-34-132-40.2c-45.1-6.1-91.4-4.3-135.5,7.1
			c-10.7,2.8-21.3,6.1-31.6,10c2,2.6,3.9,5.2,5.9,7.8c24.4-32,69.9-36.3,107-35.7c52.9,0.8,105.7,8.2,156.9,21.3
			c11.8,3,23.8,5.8,35.1,10.4c9.6,3.8,17.9,9.9,22.1,19.5c4.3,9.6,4.6,20.6,4.6,31c0.1,9.7-0.1,19.4-1.8,29
			c-1.6,9-4.3,18.1-9.9,25.4c-6.1,7.8-15.2,11.9-24.8,13.1c-11.1,1.4-22.3-0.2-33.5-0.3c-10-0.1-20.2,1.3-29.4,5.3
			c-9.4,4.1-16.8,11.6-19.9,21.5c-1.8,6-2,12.4-2,18.6c0,6.3,0.3,12.5,0.8,18.8c2.2,25.3,8.3,50.1,18.2,73.5c2.4,5.8,5.1,11.4,8,17
			c2,3.8,6.9,3,9.1,0.1c23.3-30.7,41.7-65.1,54.6-101.4c6.5-18.3,12.2-37.5,14.6-56.8c1.2-9.5,1.1-19.5-1.6-28.8
			c-2.8-9.7-8.5-17.8-14.8-25.6c-15.5-19-31.3-37.6-47-56.4c-0.8,2.9-1.6,5.8-2.4,8.8c5.2-0.8,9.8,4.7,11.1,9.9
			c1.5,6.1-2.8,12.4-7.8,15.8c-7.1,4.8-15.4,5.7-23.8,5.1c-8.6-0.7-17.6-2.5-25.9-5.1c-6.4-2-13.9-5.3-16.2-12
			c-0.8,2-1.6,3.9-2.5,5.9c24.6-17.6,54.9-26.3,85.1-24.2c6.9,0.5,13.9,1.4,20.5,3.4c5.3,1.7,10.9,4.5,13.5,9.7
			c3.1,6.2,1.3,14.4-0.1,20.8c-1.4,6.3-3.4,12.5-6.1,18.4c-11.4,24.5-32.5,43.6-56.4,55.7c-28.9,14.6-62.1,19-94.1,20.1
			c-16.7,0.5-33.4,0.3-50-0.4c-16.5-0.7-33.1-2-49.5-4.6c-16.5-2.7-32.9-6.8-48.5-12.9c-12.4-4.9-26.6-11.2-34-22.8
			c-7.8-12.1-4.9-26.2,1.9-38c7.6-13.1,18.9-23.4,30.4-33c23.7-19.6,50.6-35.7,79.1-47.2c27.9-11.3,58.9-20.5,89.2-17.9
			c14.6,1.3,28.7,6.1,40.5,15c12.4,9.5,22,22.5,31.2,35c19.3,26.4,35.4,55.2,41.5,87.7c6.1,32.3,2.9,66-7.2,97.1
			c-9.5,29.3-25.2,56.6-44.6,80.6c-9.7,12-20.3,23.5-31.9,33.7c-10.9,9.6-23.1,18.3-36.7,23.6c-15.7,6.2-32.2,7.2-48.9,5.6
			c-15-1.5-30.1-4.5-44.7-8.3c-25.9-6.8-52-17.3-72.1-35.5c-10.4-9.5-18.7-20.7-24.5-33.6c-6.5-14.5-9.7-30.5-11.1-46.3
			c-3-33.8,1.1-68.2,12-100.4c5-14.8,11.2-29.5,20.3-42.3c9.1-12.8,21.5-21.8,35.1-29.3c28.9-15.9,60.1-29.6,92.4-36.9
			c28.9-6.5,59.1-6.9,87.5,2.3c26.7,8.7,49.8,25.8,63.3,50.6c13.1,24,18.1,52.1,16.5,79.3c-1.5,25.4-8.9,50.5-21.1,72.7
			c-12.2,22.2-29.3,42-50.4,56.3c-12.6,8.5-26.4,15.5-41.3,19c-14.2,3.4-28.9,2.9-42.8-1.5c-26.1-8.4-47.4-28.9-62.8-51
			c-17.2-24.8-29.4-53.5-34.3-83.3c-4.8-28.8-2.5-60.9,11.5-87c3.5-6.5,7.8-12.4,13.5-17.2c5.3-4.5,11.8-7.5,18.5-9.3
			c14.2-4,29.3-3.4,43.9-2.7c35.5,1.8,70.8,6.3,105.5,13.4c17.4,3.6,34.6,7.8,51.7,12.6c15.1,4.3,30.3,9.1,43.9,17.3
			c13.1,7.9,23.3,19.3,31.7,32c8.9,13.5,16.9,28.2,22.6,43.3c5.2,13.7,7.9,28,7.6,42.7c-0.3,13.8-3,27.4-7.6,40.4
			c-9.5,26.7-26.8,50.3-48.5,68.4c-23.4,19.5-51.5,32.9-80.4,42.1c-31.1,9.9-63.6,15.4-96,18.4c-35.6,3.3-71.5,3.3-107.1-0.1
			c-17.4-1.7-34.8-4.1-51.9-7.5c-14.4-2.8-29.6-6.7-40.3-17.5c-9.9-10-15-23.8-18.4-37.2c-4-16-6.3-32.5-7-49.1
			c-1.4-32.4,3.3-64.8,13.9-95.5c-3.4-1-6.7-1.9-10.1-2.9c-10.7,50.2,9.7,101.2,38.9,141.5c26.9,37.1,64.8,71,111.9,77.2
			c30.3,4,60.3-5.4,87.5-18c-2.1-2.8-4.2-5.5-6.3-8.3c-28.1,24-66.9,29-102.6,25.7c-9.1-0.9-18.1-2.3-27-4.2
			c-9.4-2-18.9-4.5-27.5-8.7c-7.9-3.9-15.3-9.2-20.4-16.4c-4.8-6.7-7.8-14.3-9.5-22.4c-4-19.1-1-39.4,3.2-58.2
			c-3.4,0-6.8,0-10.1-0.1c12.4,36.8,32.9,70.6,59.7,98.7c13.3,13.9,28.1,26.4,44.1,37.1c8.7,5.8,18.1,11.7,28.6,13.8
			c12,2.4,23.6-0.7,35.1-4.1c26.1-7.8,52.2-15.5,78.3-23.3c-1.7-2.9-3.4-5.9-5.1-8.8c-10.9,8.4-22.3,16.4-34.6,22.6
			c-11.3,5.7-23.9,9.8-36.7,9.1c-25-1.4-41.3-22.4-52-42.8c-13-24.9-21.7-52.2-26.5-79.8c-2.4-13.8-3.8-27.8-4.1-41.8
			c-0.3-13.6,0-28,6.4-40.3c11.6-22.3,37.1-34.4,59-44.2c13.3-6,27-11,41-15.2c6.8-2,13.6-3.9,20.6-5.4c6.8-1.4,14-2.4,20.9-1
			c12.1,2.3,22,9.9,30.2,18.7c8.5,9.1,15.4,19.6,21.1,30.6c11.7,22.4,17.7,47.9,16.4,73.2c-2.4,45.6-32.5,89.7-76.9,103.6
			c-26.8,8.4-55.3,4.2-81.6-4.2c-13.7-4.4-27-9.9-40-15.8c-12.8-5.8-25.7-11.9-37.3-19.9c-20.1-13.8-36.5-35.4-33.8-61
			c2.6-24.2,21-44.6,39.2-59.2c19.8-15.9,44.2-29.7,70.3-29.4c12.1,0.2,24.2,3.4,34.2,10.4c9,6.3,15.4,15.9,18.4,26.3
			c3.1,10.8,2.9,22.5-1.5,32.9c-4.3,10-12.2,18.4-21.6,23.8c-23.5,13.4-51,3.1-71.9-10.6c-11-7.2-21-15.9-30.6-24.9
			c-10.1-9.5-20.1-19.3-29.2-29.9c-17.3-20.1-31.3-44.9-30.3-72.3c1-25.3,17.4-45.4,37.8-58.8c21.4-14.1,48.8-23.1,74-13.9
			c23.5,8.5,41.1,30.7,52.3,52.2c11.8,22.8,17.3,49.2,13.7,74.7c-3.5,24.8-15.2,48.6-33.6,65.7c-8.4,7.8-20.8,16.5-32.8,11.6
			c-10.4-4.3-17.6-15.9-22.1-25.7c-9.6-20.8-9.1-45.5-1.7-66.9c7.7-22.2,23.8-40.7,42.9-54c9.8-6.8,20.5-12.5,31.6-17
			c5.6-2.2,11.3-4.2,17.1-5.8c1.9-0.5,5.5-2.3,7.4-0.9c1.7,1.2,2.6,4.8,3.2,6.7c6.7,21.5-6.5,44.4-24.9,55.2
			c-10.8,6.4-23.3,9.6-35.7,10.6c-11.8,0.9-24.3,0.6-35.7-2.9c-10.2-3.1-19.1-10-20.5-21.2c-1.4-11,3.9-21.9,12.4-28.6
			c19.6-15.3,46.8-9,66.3,2.8c11.5,6.9,21.7,15.7,31.5,24.7c10.5,9.7,20.3,20.2,29.3,31.3c8.2,10,17,20.9,21.4,33.2
			c4.9,14,2.7,28.6-1.4,42.4c-7.4,24.8-20,48.4-36.5,68.4c-8.2,9.9-17.2,19.5-27.5,27.3c-10.1,7.6-21.8,13.2-34.7,12.9
			c-12.9-0.3-25-6-35.7-12.9c-10.8-7-20.4-15.6-29.7-24.5c-35.9-34.4-66.3-77.9-75-127.7c-4.2-23.8-3.5-50.2,6.7-72.6
			c5.1-11.3,12.5-21.2,22.3-28.8c10.2-8,22.4-13.3,34.7-17.2c48.4-15.6,101.1-11,148.3,6.8c23.8,9,46.3,21.5,66.7,36.7
			c20.8,15.5,39.9,34.2,52.7,57c12.6,22.4,18.2,48.3,16.9,74c-1.3,25.1-9.6,51.1-25.4,70.8c-8.2,10.2-18.3,18-30.2,23.3
			c-12.4,5.5-26,8.1-39.3,10.1c-30.2,4.5-61,5.6-91.5,3.5c-28.1-2-56.9-6.6-82.4-19.1c-20.8-10.2-38.7-25.1-53.4-42.9
			c-14.7-17.8-25.9-38.6-33.7-60.2c-8.4-23.5-14-49.3-12.7-74.3c0.7-13.5,3.9-26.7,10.6-38.5c6-10.6,14.2-19.5,23.4-27.4
			c9.7-8.3,20.4-15.3,31.5-21.6c11.9-6.8,24.4-12.6,37.7-15.9c27.9-6.8,56,1.7,81.2,13.7c21.6,10.2,41.9,23.4,59.8,39.4
			c36.3,32.3,62.4,75.4,70.2,123.8c3.9,24.5,3.1,49.9-2.6,74.1c-2.9,12.2-7,24.1-12.4,35.3c-5.3,10.9-11.6,21.8-19.6,30.8
			c-4,4.5-8.5,8.5-13.8,11.4c-5.8,3.2-12.2,4.3-18.8,4c-12.7-0.5-25.8-5.1-37.4-10c-22.6-9.6-42.8-24.6-58.6-43.3
			c-16.9-20-28.3-44.4-33.5-70c-2.6-12.8-3.5-25.8-2.8-38.8c0.7-12.7,2.8-25.9,8.8-37.3c11.3-21.3,36.4-31,59.3-33.3
			c21.4-2.1,43.4,1.8,62.8,11c19.4,9.2,36.6,23.3,48.1,41.5c11.5,18.1,16.7,39.5,16.1,60.8c-0.6,21.3-6.9,42.4-18.5,60.3
			c-11.6,17.9-28.8,31.9-48.9,39.2c-40.9,15-90.5,5.3-119.3-28.4c-15.4-18.1-23.9-44-13.6-66.7c4.9-10.8,13.6-18.8,24.5-23.3
			c11.2-4.6,23.6-5.8,35.6-5.7c12.6,0.1,26.3,1.3,36.9,9c6.8,4.9,11.5,12.8,13.7,21c2.4,8.8,2.2,17.9-0.9,26.6
			c-3.1,8.8-9.9,15.8-18.6,20.3c-10.6,5.4-22.9,6.7-34.7,6.8c-14.1,0.1-28.4-1.2-42.3-3.2c-14.5-2-29.1-4.8-43.2-8.9
			c-11.7-3.3-23.6-7.9-32.6-16.4c-16.1-15.2-18.2-39.9-10.7-59.9c8.3-22,27.8-38.1,47.8-49.1C548.4,353.5,543.1,344.4,537.2,347.7
			L537.2,347.7z"/>
	</g>
	<g>
		<path style="fill:#49C5B8;stroke:#515151;stroke-width:8;stroke-linecap:round;stroke-linejoin:round;stroke-miterlimit:10;" d="
			M1174,436.9l-0.7,114.6l-64.6-0.4l0.7-114.6L874.5,435l0.3-50.3l230.1-318.2l71.5,0.5l-2,318.9l67.5,0.4l-0.3,51L1174,436.9z
			 M1111.2,136.6L930.1,384.4l179.6,1.1L1111.2,136.6z"/>
	</g>
	<polygon style="fill:#D1D3D2;" points="287,430.6 294.3,405.1 328.5,475.7 356.5,557.5 356.4,575.9 356.3,595.3 344.1,595.2 
		350.2,599.3 354.2,600.3 364.4,600.4 372.6,600.5 385.9,598.5 398.1,597.6 412.4,594.6 424.7,591.6 440,589.7 448.2,585.6 
		456.4,582.6 464.5,581.7 472.7,580.7 476.7,584.8 478.7,592 478.7,598.1 474.6,602.1 467.4,607.2 459.2,609.2 450,612.2 
		438.8,614.1 425.5,617.1 412.2,620.1 398,621 383.7,623 374.5,625 356.1,624.8 337.8,624.7 321.4,622.6 307.2,624.5 275.6,620.3 
		269.4,618.2 264.3,618.1 258.2,621.2 254.1,626.2 240.8,628.2 237.8,620 232.7,622 220.4,626 216.4,620.9 201.1,612.6 182.9,594.2 
		175.9,570.7 179.2,525.8 209.3,452.5 225.9,408.8 234,418 238,430.3 244.1,426.2 261.5,424.3 274.7,427.4 	"/>
	<path style="fill:#8E8E8E;" d="M256,471c0,0,31.8,4.2,62.9-11.4c3.3,2.1,6.3,12.6,8,16.1c3.5,7.1,7.8,14.2,10.5,21.5
		c-9.3,3.7-33,2-43.4,1.8c-13.1-0.3-39.7-6.1-39.2-13.2C255.2,480.9,255.6,475.9,256,471z"/>
	<polygon style="fill:#8E8E8E;" points="261,424 256,470 202.2,467 227,404 239,426 	"/>
	<g>
		<path style="fill:#515151;" d="M245.3,632.3c-2.1,0-4.3-0.6-6.1-2c-2.5-1.9-3.3-4.9-3.1-7.6c-0.8,0.6-1.6,1.2-2.5,1.9
			c-1.5,1.2-3.1,2.5-5,3.5c-3.9,2.1-9.6,2.6-13.1-1.2c-1.4-1.5-2-3.6-1.9-5.7c-14.9-1.8-29.1-12.7-36.1-28.5
			c-6.3-14.1-7.5-31.3-3.7-52.6c3.7-20.8,10.2-41.5,19.9-63.3l30.7-74.2c0.5-1.3,1.7-2.1,3.1-2.1c1.4,0,2.6,0.7,3.2,1.9l10.1,20.5
			c7.2-0.8,28.3-2.6,41.3,1.4l9.3-21.3c0.5-1.3,1.8-2.1,3.1-2.1c1.4,0,2.6,0.8,3.2,2l32.7,69.6c13.4,26.2,22.5,48.2,28.4,69.3
			c3.5,12.5,9.3,39.7-2.5,54.9c61.2-3.2,83.8-11.6,96.1-16.2c6.5-2.4,10.9-4,16.6-3.6c5,0.4,9.4,2.8,12.1,6.7
			c2.4,3.5,3,7.7,1.8,11.9c-2.8,9.5-12.3,13.5-21.1,16.1c-61.4,18.1-128.7,21.7-194.5,10.4c-1.8-0.3-3.7-0.6-5-0.2
			c-1.5,0.5-2.8,2-4.3,3.7c-0.8,0.9-1.6,1.9-2.5,2.8C252.8,630.6,249,632.3,245.3,632.3z M243.5,622c-0.2,0.2-0.5,0.7-0.5,1.5
			c0,0.6,0.1,1.1,0.4,1.3c1.8,1.4,5.1,0.3,7.1-1.6c0.7-0.7,1.4-1.4,2.1-2.3c1.9-2.2,4.1-4.7,7.4-5.8c3-0.9,5.9-0.4,8.3,0
			c64.8,11.1,131,7.5,191.4-10.2c7.1-2.1,14.6-5.1,16.4-11.4c0.6-2.2,0.4-4.3-0.8-6c-1.4-2.1-4-3.4-6.9-3.7
			c-4.2-0.3-7.5,0.9-13.6,3.1c-12.8,4.8-36.7,13.6-101.4,16.8c-1.3,0.1-2.4-0.6-3.1-1.6c-0.9,0.6-1.8,1.1-2.8,1.6
			c-1.7,0.9-3.8,0.2-4.7-1.6c-0.9-1.7-0.2-3.8,1.6-4.7c7.3-3.7,11.3-11.6,11.8-23.5c0.5-11.7-2.4-24-4.2-30.3
			c-5.8-20.6-14.7-42.3-28-68.1c0,0,0-0.1-0.1-0.1l-29.5-62.7l-7.5,17.2c-0.4,0.8-1.1,1.5-1.9,1.9c-0.9,0.3-1.8,0.3-2.7-0.1
			c-12.8-5.7-43-1.8-43.3-1.8c-1.5,0.2-2.9-0.6-3.6-1.9l-7.8-15.8l-27.8,67.2c-9.5,21.4-15.8,41.6-19.4,61.8
			c-3.6,19.9-2.5,35.8,3.2,48.6c5.7,12.9,19.4,25.1,35,24.7c0.9-0.2,1.9-0.3,2.8,0c1.7,0.4,2.8,1.9,2.7,3.6
			c-0.1,1.7-1.4,3.1-3.1,3.2c-0.2,0-0.4,0-0.5,0c-0.1,0.3-0.2,0.7-0.1,0.8c0.8,0.8,2.9,0.8,4.8-0.2c1.3-0.7,2.5-1.7,3.8-2.8
			c1.2-0.9,2.4-1.9,3.7-2.8c3.5-2.2,8.7-3.6,12.9-0.8c1.3,0.9,1.9,2.6,1.3,4.1C246.6,621.2,245.1,622.1,243.5,622z"/>
	</g>
	<path style="fill:#FFFFFF;" d="M288.8,598.9c10.3-8.3,14.3-21.5,13.4-37.7c-1.4-24.1-12.7-56.3-40.1-61.4
		c-35.4-6.6-50.7,27.4-53.8,55.7c-1.5,14-4.1,34.5,9.6,43.7c14.6,9.8,35.9,11.3,52.7,7.9C278,605.4,284.1,602.7,288.8,598.9z"/>
	<g>
		<path style="fill:#515151;" d="M270.1,457.7c-0.5,0-1-0.1-1.4-0.4c-1.2-0.8-1.5-2.4-0.7-3.6c2-3,4.9-5,8.1-5.5
			c4.4-0.7,8.9,2,10.3,6.2c0.5,1.4-0.3,2.8-1.6,3.3c-1.4,0.5-2.8-0.3-3.3-1.6c-0.6-1.8-2.6-3-4.6-2.7c-1.7,0.3-3.4,1.5-4.5,3.3
			C271.7,457.3,270.9,457.7,270.1,457.7z"/>
	</g>
	<g>
		<path style="fill:#515151;" d="M234.9,456.4c-0.5,0-1-0.1-1.4-0.4c-1.2-0.8-1.5-2.4-0.7-3.6c2-3,4.9-5,8.1-5.5
			c4.4-0.7,8.9,2,10.3,6.2c0.5,1.4-0.3,2.8-1.6,3.3c-1.4,0.5-2.8-0.3-3.3-1.6c-0.6-1.8-2.6-3-4.6-2.7c-1.7,0.3-3.4,1.5-4.5,3.3
			C236.6,456,235.7,456.4,234.9,456.4z"/>
	</g>
	<g>
		<path style="fill:#515151;" d="M255.6,474.7c-0.1,0-0.3,0-0.4,0c-4.3-0.3-6.9-4-7.2-4.5c-0.8-1.2-0.5-2.8,0.7-3.6
			c1.2-0.8,2.8-0.5,3.6,0.7c0.4,0.6,1.7,2.1,3.2,2.2c1.4,0.1,2.8-1.2,3.7-2.3c0.9-1.1,2.6-1.2,3.7-0.3c1.1,0.9,1.2,2.6,0.3,3.7
			C260.8,473.3,258.3,474.7,255.6,474.7z"/>
	</g>
	<g>
		<path style="fill:#515151;" d="M254.1,496.1c-4.8,0-7.8-2.7-8-2.9c-1.1-1-1.1-2.6-0.2-3.7c1-1.1,2.6-1.1,3.7-0.2
			c0.4,0.4,4.2,3.3,10.1-0.2c1.2-0.7,2.8-0.3,3.6,0.9c0.7,1.2,0.3,2.8-0.9,3.6C259.3,495.5,256.5,496.1,254.1,496.1z"/>
	</g>
	<g>
		<path style="fill:none;stroke:#000000;stroke-width:8;stroke-linecap:round;stroke-linejoin:round;stroke-miterlimit:10;" d="
			M244.2,404"/>
	</g>
	<g>
		<path style="fill:#515151;" d="M310.7,472.2c-6.3,0-10.7-1.8-10.8-1.8c-1.3-0.5-2-2.1-1.4-3.4c0.5-1.3,2.1-2,3.4-1.4
			c0.8,0.3,19.9,7.7,32.5-12.6c0.8-1.2,2.4-1.6,3.6-0.8c1.2,0.8,1.6,2.4,0.8,3.6C330.2,469.4,318.9,472.3,310.7,472.2z"/>
	</g>
	<g>
		<path style="fill:#515151;" d="M315.2,482.9c-8.3-0.1-14.5-3.9-14.7-3.9c-1.2-0.8-1.6-2.4-0.8-3.6c0.8-1.2,2.4-1.6,3.6-0.8
			c0.7,0.4,16.8,10.2,30.5-6.6c0.9-1.1,2.6-1.3,3.7-0.4c1.1,0.9,1.3,2.6,0.4,3.7C330.3,480.4,322.1,482.9,315.2,482.9z"/>
	</g>
	<g>
		<path style="fill:#515151;" d="M206,466.1c-6.3,0-15-3.1-21.4-16.9c-0.6-1.2-0.3-2.8,0.7-3.6c0.9-0.7,2.2-0.4,2.8,0.9
			c9.6,20.6,24.3,13.3,24.9,13c1-0.5,2.2,0.1,2.6,1.5c0.4,1.3-0.1,2.9-1.1,3.4C214.3,464.4,210.8,466.1,206,466.1z"/>
	</g>
	<g>
		<path style="fill:#515151;" d="M199.3,478.6c-5.3,0-11.6-2.6-17.3-11.9c-0.7-1.1-0.5-2.8,0.3-3.7c0.9-0.9,2.1-0.7,2.8,0.4
			c10.5,17,22.9,7.4,23.4,7c0.9-0.8,2.2-0.4,2.8,0.8c0.6,1.2,0.3,2.8-0.7,3.6C210.5,474.9,205.7,478.6,199.3,478.6z"/>
	</g>
	<g>
		<g>
			<path style="fill:#49C5B8;" d="M285.4,526.5c-12-2.9-15.5-17-18.5-27.4c-0.9-3.3-1.9-6.6-3.3-9.7c-1.2-2.8-3.1-5.5-6-6.9
				c-5.7-2.8-12.4-0.7-17.1,3.2c-4.2,3.5-7.2,8.4-9.6,13.2c-3.3,6.4-6.4,12.8-9.6,19.2c-5.1,10.3-10.1,22.2-20.1,28.6
				c-3.9,2.5-8.3,3.6-12.8,3.4c-0.5,0-1.1-0.1-1.6-0.1c-0.1,0-0.3,0-0.4,0c0.4,0.1-0.1,0-0.1,0c-0.3-0.1-0.6-0.1-0.9-0.2
				c-1.1-0.2-2.2-0.6-3.3-1c-0.3-0.1,0,0,0,0c-0.1-0.1-0.2-0.1-0.4-0.2c-0.2-0.1-0.5-0.2-0.7-0.3c-0.5-0.3-1-0.5-1.5-0.9
				c-0.3-0.2-0.5-0.3-0.7-0.5c-0.2-0.2,0,0,0,0c-0.1-0.1-0.2-0.2-0.3-0.3c-0.4-0.4-0.8-0.8-1.2-1.2c-0.2-0.2-0.3-0.4-0.5-0.6
				c0,0-0.3-0.4-0.1-0.1c-0.1-0.1-0.2-0.2-0.2-0.3c-0.3-0.5-0.6-1-0.9-1.5c-1.6-3-6.1-0.4-4.5,2.6c5,9.3,17.1,11.5,26.5,8.5
				c11.5-3.6,18.5-14.4,23.8-24.5c3.2-6.2,6.3-12.5,9.4-18.8c2.7-5.5,5.3-11.3,8.8-16.4c2.7-3.9,6.6-7.7,11.6-8
				c2.7-0.2,5.1,0.8,6.5,3.1c1.7,2.6,2.5,5.6,3.4,8.5c3.5,11.7,6.4,26.1,18.6,32c1.4,0.7,2.8,1.2,4.2,1.5c1.4,0.3,2.8-0.4,3.2-1.8
				C287.6,528.4,286.8,526.8,285.4,526.5L285.4,526.5z"/>
		</g>
	</g>
	<g>
		<path style="fill:#515151;" d="M265.2,487.1c-0.9,0-1.8-0.1-2.7-0.3c-3.3-0.7-5.8-2.4-7.3-5.2c-0.1-0.2-0.2-0.5-0.4-0.7
			c-2,2.7-4.7,4.9-7.9,5.6c-6.1,1.4-11.4-3.6-12.9-5.2c-1-1-0.9-2.7,0.1-3.7c1-1,2.7-0.9,3.7,0.1c1.9,2.1,5.2,4.3,7.9,3.7
			c3.4-0.8,6.5-5.1,7.1-8.4c0,0,0,0,0,0c0.2-1.4,1.6-2.4,3-2.1c1.4,0.2,2.4,1.6,2.1,3c0,0,0,0,0,0c-0.1,0.7,0.6,3.1,1.8,5.3
			c0.7,1.4,2,2.2,3.7,2.6c2.9,0.6,6.6-0.4,9-2.2c1.1-0.9,2.8-0.7,3.7,0.4c0.9,1.1,0.7,2.8-0.4,3.7
			C272.9,485.8,268.9,487.1,265.2,487.1z"/>
	</g>
	<g>
		<g>
			<path style="fill:#9DA09F;" d="M271.4,645.4c0.8-2.2,1.8-4.2,2.9-6.2c0.6-1,1.2-2,1.9-3c0.3-0.4,0.5-0.8,0.9-1.1
				c0.2-0.1,0.2-0.2,0.4-0.3c0.1,0-0.2-0.1-0.1-0.1c0.3,0.3,0.4,0.8,0.6,1.2c0.2,0.5,0.4,1.1,0.7,1.6c0.5,1.2,1,2.5,1.5,3.7
				c1,2.4,2,4.8,3,7.2c0.3,0.7,1,1.3,1.8,1c0.7-0.2,1.4-1.1,1-1.8c-1.2-2.8-2.3-5.7-3.5-8.5c-0.6-1.4-1.2-2.8-1.8-4.3
				c-0.5-1.3-1.1-2.7-2.6-3c-1.4-0.3-2.8,0.6-3.6,1.7c-0.9,1.1-1.7,2.3-2.4,3.5c-1.5,2.4-2.7,5-3.6,7.6c-0.3,0.8,0.3,1.6,1,1.8
				C270.4,646.7,271.2,646.2,271.4,645.4L271.4,645.4z"/>
		</g>
	</g>
	<g>
		<g>
			<path style="fill:#9DA09F;" d="M270.3,642.7c4.9,1.4,10,2,15.1,1.6c0.8-0.1,1.5-0.6,1.5-1.5c0-0.8-0.7-1.6-1.5-1.5
				c-4.8,0.4-9.7-0.1-14.3-1.5C269.3,639.3,268.5,642.1,270.3,642.7L270.3,642.7z"/>
		</g>
	</g>
	<g>
		<g>
			<path style="fill:#9DA09F;" d="M284.2,640.6c0.8,1.5,1.3,3,1.5,4.7c0.2,1.5,2.6,1.4,2.9,0c0.3-1.5,0.8-3.8,2.4-4.5
				c0.5-0.2,1.1-0.1,1.6,0.3c0.2,0.1,0.4,0.3,0.5,0.5c0,0.1,0.1,0.1,0,0.3c0.9,0.4,1.8,0.8,2.7,1.2c0.4-1.1,2-1.7,3.1-1.3
				c1.3,0.5,1.8,2.1,1.3,3.4c-0.3,0.8,0.3,1.6,1,1.8c0.8,0.2,1.6-0.3,1.8-1c1.1-2.7-0.5-6-3.2-7c-2.8-1.1-5.9,0.7-7,3.3
				c-0.6,1.6,2,2.7,2.7,1.2c1.4-2.9-1.5-5.9-4.5-5.6c-3.4,0.3-4.9,3.9-5.5,6.8c1,0,1.9,0,2.9,0c-0.3-1.9-0.9-3.7-1.8-5.4
				C285.9,637.4,283.3,638.9,284.2,640.6L284.2,640.6z"/>
		</g>
	</g>
	<g>
		<g>
			<path style="fill:#9DA09F;" d="M301.4,633.5c1.1,4.1,2.3,8.2,3.4,12.3c0.3,1.2,2.2,1.6,2.7,0.4c0.9-1.9,0.6-3.8,0.6-5.8
				c0-0.7,0.1-1.4,0.5-2.1c0.2-0.3,0.8-0.7,1.3-0.8c0.1,0,0.5-0.1,0.4-0.1c-0.1,0,0.3,0,0.3,0c0.4,0,0.4,0,0.9,0.1
				c0,0,0.3,0.1,0.1,0c0.1,0,0.1,0.1,0.2,0.1c0.1,0,0.1,0.1,0.2,0.1c-0.2-0.1,0,0,0.1,0.1c0.3,0.3,0.3,0.3,0.5,0.7
				c0.2,0.3,0.2,0.4,0.3,0.8c0,0.1,0,0.2,0.1,0.3c0,0,0-0.2,0,0c0,0.2,0,0.4,0,0.6c0,0.4-0.3,1-0.6,1.3c-0.1,0.1-0.5,0.4-0.8,0.5
				c0.1-0.1-0.2,0.1-0.2,0.1c-0.1,0-0.2,0.1-0.3,0.1c-0.3,0.1-0.1,0-0.4,0.1c-0.5,0-0.6,0-1-0.1c-0.1,0-0.2,0-0.2-0.1
				c-0.4-0.2,0.1,0.1-0.2-0.1c-0.2-0.1-0.4-0.2-0.6-0.4c-0.6-0.5-1.7-0.1-2.1,0.5c-0.4,0.8-0.1,1.6,0.5,2.1c1.8,1.3,4.4,1.3,6.2,0.2
				c2-1.2,2.9-3.5,2.4-5.8c-0.4-2.2-2.2-3.9-4.4-4.2c-2.1-0.3-4.5,0.8-5.5,2.7c-0.7,1.3-0.7,2.7-0.7,4.1c0,1.1,0.2,2.4-0.2,3.4
				c0.9,0.1,1.8,0.2,2.7,0.4c-1.1-4.1-2.3-8.2-3.4-12.3C303.8,630.8,300.9,631.6,301.4,633.5L301.4,633.5z"/>
		</g>
	</g>
	<g>
		<g>
			<path style="fill:#9DA09F;" d="M321.7,641.1c2.4,0,4.2-2.7,3.5-5c-0.8-2.4-3.9-3.2-5.9-1.8c-2.3,1.6-2.2,4.9-0.9,7.1
				c1.2,2,3.5,3.4,5.9,3.3c2.8-0.2,5.2-2.1,6-4.8c0.2-0.8-0.3-1.7-1-1.8c-0.8-0.2-1.6,0.2-1.8,1c0,0.1-0.2,0.6-0.1,0.3
				c-0.1,0.2-0.2,0.3-0.2,0.5c-0.1,0.2-0.2,0.3-0.3,0.4c0.2-0.2,0,0,0,0c-0.1,0.1-0.2,0.2-0.3,0.3c-0.1,0.1-0.4,0.4-0.2,0.2
				c-0.1,0.1-0.3,0.2-0.4,0.3c-0.2,0.1-0.3,0.2-0.5,0.3c0,0-0.3,0.1,0,0c-0.1,0-0.2,0.1-0.3,0.1c-0.2,0.1-0.3,0.1-0.5,0.1
				c0,0-0.3,0.1-0.1,0c0.2,0-0.1,0-0.1,0c-0.2,0-0.4,0-0.6,0c-0.1,0-0.3,0,0,0c-0.1,0-0.2,0-0.3-0.1c-0.2,0-0.4-0.1-0.5-0.2
				c-0.2-0.1,0.2,0.1,0,0c-0.1,0-0.2-0.1-0.2-0.1c-0.2-0.1-0.3-0.2-0.5-0.3c-0.2-0.1,0.2,0.1,0,0c-0.1-0.1-0.2-0.1-0.3-0.2
				c-0.1-0.1-0.3-0.3-0.4-0.4c-0.2-0.2-0.1-0.1,0,0c-0.1-0.1-0.1-0.1-0.2-0.2c-0.1-0.2-0.2-0.3-0.3-0.5c0-0.1-0.1-0.2-0.1-0.2
				c0.1,0.3,0-0.1-0.1-0.2c-0.1-0.2-0.1-0.4-0.1-0.5c0-0.1,0-0.2-0.1-0.3c0,0.1,0,0.3,0,0c0-0.2,0-0.4,0-0.6c0,0,0-0.3,0-0.1
				c0-0.1,0.1-0.3,0.1-0.4c0,0,0.1-0.3,0.1-0.2c-0.1,0.1,0.1-0.2,0.1-0.2c0.1-0.2-0.2,0.1,0,0c0.1,0,0.1-0.1,0.2-0.2
				c0.1-0.2-0.2,0.1,0,0c0.1,0,0.1-0.1,0.2-0.1c0,0,0.3-0.1,0.1,0c-0.2,0.1,0.1,0,0.2,0c0.1,0,0.2,0,0.2,0c-0.3,0.1-0.1,0-0.1,0
				c0.1,0,0.5,0,0.2,0c0.1,0,0.5,0.1,0.4,0.1c-0.2-0.1,0,0,0.1,0c0.2,0.1,0.2,0.1,0,0c0.1,0,0.1,0.1,0.2,0.2c0.3,0.2-0.1-0.2,0,0.1
				c0.1,0.1,0.1,0.2,0-0.1c0,0.1,0,0.2,0.1,0.3c0.1,0.2,0-0.3,0-0.1c0,0.1,0,0.2,0,0.3c0-0.3,0-0.2,0-0.1c0,0.1-0.1,0.2-0.1,0.3
				c0.1-0.3-0.1,0.1-0.1,0.2c-0.1,0.2,0.2-0.2,0,0c-0.1,0.1-0.1,0.1-0.2,0.2c-0.2,0.2,0,0,0,0c-0.1,0.1-0.4,0.1,0,0
				c-0.1,0-0.1,0-0.2,0.1c-0.3,0.1,0.3,0,0,0c-0.8,0-1.5,0.7-1.5,1.5C320.2,640.4,320.8,641.2,321.7,641.1L321.7,641.1z"/>
		</g>
	</g>
	<g>
		<g>
			<path style="fill:#9DA09F;" d="M328.1,633.3c2,2.8,3.4,5.8,4.2,9.1c1-0.3,1.9-0.5,2.9-0.8c-0.4-1.1-1-2.6-0.8-3.7
				c0.1-0.5,0.3-0.8,0.5-1.1c0.1-0.1,0.2-0.2,0.3-0.3c-0.2,0.1,0.2-0.1,0.2-0.1c-0.1,0.1,0,0,0.1,0c0.3-0.1-0.1-0.1,0.2,0
				c0.3,0-0.1,0,0.1,0c0.1,0,0.2,0.1,0.3,0.1c-0.2-0.1,0,0,0.1,0.1c0.1,0.1,0.2,0.1,0.3,0.2c0.4,0.3,0.8,0.6,1.3,0.8
				c1.1,0.7,2.2,1.1,3.5,0.8c0.8-0.2,1.3-1.1,1-1.8c-0.2-0.8-1-1.2-1.8-1c0.3-0.1-0.1,0-0.1,0c0.3,0,0,0-0.1,0c0,0-0.4-0.2-0.2,0
				c-0.1-0.1-0.3-0.1-0.4-0.2c-0.5-0.3-1-0.6-1.4-0.9c-1.3-0.8-2.8-1.2-4.3-0.5c-1.3,0.6-2.3,2-2.6,3.4c-0.4,1.8,0.2,3.6,0.8,5.2
				c0.3,0.8,1,1.3,1.8,1c0.8-0.2,1.2-1.1,1-1.8c-0.9-3.5-2.4-6.9-4.5-9.8c-0.5-0.7-1.3-1-2.1-0.5C328,631.7,327.7,632.7,328.1,633.3
				L328.1,633.3z"/>
		</g>
	</g>
	<path style="fill:none;stroke:#3F3F3F;stroke-width:5;stroke-linecap:round;stroke-linejoin:round;stroke-miterlimit:10;" d="
		M204.4,519.7c-1,2.4-1.7,4.9-2.1,7.5c-0.1,0.9-0.2,1.9,0.1,2.7c0.5,1.4,2.2,2.2,3.7,1.7c1.4-0.4,2.3-2.1,2-3.5
		c-0.5,1.9,1.1,4,3,4.1c1.9,0.1,3.6-2,3.2-3.9c-1.6,1.4-0.1,4.4,2.1,4.5c2.1,0,3.8-2.1,4-4.2c0.2-2.1-0.6-4.2-1.4-6.2"/>
	<path style="fill:none;stroke:#3F3F3F;stroke-width:5;stroke-linecap:round;stroke-linejoin:round;stroke-miterlimit:10;" d="
		M300.9,520.1c1,2.4,1.7,4.9,2.1,7.5c0.1,0.9,0.2,1.9-0.1,2.7c-0.5,1.4-2.2,2.2-3.7,1.7s-2.3-2.1-2-3.5c0.5,1.9-1.1,4-3,4.1
		c-1.9,0.1-3.6-2-3.2-3.9c1.6,1.4,0.1,4.4-2.1,4.5s-3.8-2.1-4-4.2c-0.2-2.1,0.6-4.2,1.4-6.2"/>
	<g>
		<g>
			<path style="fill:#3F3F3F;" d="M302.5,524c1.9,0,1.9-3,0-3C300.6,521,300.6,524,302.5,524L302.5,524z"/>
		</g>
	</g>
	<g>
		<g>
			<path style="fill:#3F3F3F;" d="M302.2,525.2c1.9,0,1.9-3,0-3C300.3,522.2,300.3,525.2,302.2,525.2L302.2,525.2z"/>
		</g>
	</g>
	<path style="fill:#49C5B8;" d="M769.4,337.1c-4.6-12.2-12.7-22.6-23.8-29.6c-11.4-7.3-25.3-10.5-38.7-10.5"/>
	<g>
		<path style="fill:#8E8E8E;stroke:#515151;stroke-width:6;stroke-linecap:round;stroke-linejoin:round;stroke-miterlimit:10;" d="
			M1085.2,386.9c-18.2-0.6-43,0.7-61.2,0.1c-17.4-0.5-36,0.1-53-4c-21.1-5.1-29.9-30.7-28.8-50.1c0.9-15.3,7-29.9,15.9-42.4
			c3.1,3.6,6.2,7.1,9.3,10.7c0.6,0.7,1.3,1.5,2.2,1.8c1.3,0.4,2.7-0.2,3.9-0.7c6.4-2.6,13.9-2.7,20.4-0.3c1.4,0.5,3,1.2,4.5,0.9
			c1.4-0.3,2.4-1.4,3.4-2.5c3.1-3.4,6.2-6.8,9.3-10.2c3.7,5.4,6.7,11.2,9,17.3c0.1-3,3.3-4.9,6.2-5.9c4.8-1.6,9.8-2.1,14.8-2.6
			c11.6-1.2,23.2-2.1,34.9-1.8c7.8,0.2,15.6,1.1,22.9,3.6c7.3,2.6,14.2,7,18.7,13.3c6.4,9,7.4,21,6,32c-1.2,9.6-4.2,19.2-10.1,26.9
			c-9.6,12.5-24.7,15.1-39.6,14c-13.9-1-33.5-4.3-43.7-14.5c-2.9-2.9-3.6-9.1-0.1-11.8c1.6-1.2,3.8-1.5,5.8-1.4
			c6.6,0.2,12.8,2.8,19,5c8.2,2.9,16.7,5.2,25.3,5s17.5-2.9,23.7-9"/>
		<g>
			<path style="fill:none;stroke:#515151;stroke-width:5;stroke-linecap:round;stroke-linejoin:round;stroke-miterlimit:10;" d="
				M961.7,328.8c0,0,6,6,13,0"/>
			<path style="fill:none;stroke:#515151;stroke-width:5;stroke-linecap:round;stroke-linejoin:round;stroke-miterlimit:10;" d="
				M993.7,328.6c0,0,6,6,13,0"/>
			<path style="fill:none;stroke:#515151;stroke-width:5;stroke-linecap:round;stroke-linejoin:round;stroke-miterlimit:10;" d="
				M983.7,353.8"/>
		</g>
		<g>
			<g>
				<path style="fill:#515151;" d="M1012.8,346.8c7.3,1.5,14.8,0.5,21.4-2.8c1.7-0.9,0.2-3.4-1.5-2.6c-5.9,2.9-12.7,3.8-19.1,2.5
					C1011.7,343.5,1010.9,346.4,1012.8,346.8L1012.8,346.8z"/>
			</g>
		</g>
		<ellipse style="fill:#CECECE;" cx="983" cy="353.5" rx="3" ry="1.5"/>
		<g>
			<g>
				<path style="fill:#515151;" d="M1012.4,352c6.4,3.1,13.6,5.8,20.7,3.6c1.8-0.6,1.1-3.5-0.8-2.9c-6.3,1.9-12.7-0.5-18.4-3.3
					C1012.2,348.5,1010.7,351.1,1012.4,352L1012.4,352z"/>
			</g>
		</g>
		<g>
			<g>
				<path style="fill:#515151;" d="M954,345.9c0.3-0.1-0.2,0.1-0.2,0.1c-0.2,0.1-0.3,0.1-0.5,0.1c-0.3,0.1-0.6,0.2-1,0.2
					c-0.7,0.1-1.5,0.2-2.2,0.3c-1.9,0.1-3.8,0.1-5.6-0.1c-3-0.3-6.7-0.6-9.2-2.3c-1.6-1.1-3.1,1.5-1.5,2.6c3,2,7.2,2.4,10.7,2.7
					c3.5,0.3,7.7,0.5,11-1c0.7-0.3,0.9-1.4,0.5-2.1C955.6,345.7,954.7,345.6,954,345.9L954,345.9z"/>
			</g>
		</g>
		<ellipse style="fill:#CECECE;" cx="983.7" cy="316.1" rx="19.3" ry="7.1"/>
		<g>
			<g>
				<path style="fill:#515151;" d="M952.4,352.8c-5.1,1.9-10.8,4-16.2,2.1c-1.8-0.6-2.6,2.3-0.8,2.9c6,2.1,12.2,0,17.8-2.1
					c0.8-0.3,1.3-1,1-1.8C954,353.1,953.1,352.5,952.4,352.8L952.4,352.8z"/>
			</g>
		</g>
		<path style="fill:none;stroke:#515151;stroke-miterlimit:10;" d="M983.5,302.5"/>
		<g>
			<g>
				<path style="fill:#515151;" d="M981.7,303c0,6.2,0,12.3,0,18.5c0,1.9,3,1.9,3,0c0-6.2,0-12.3,0-18.5
					C984.7,301.1,981.7,301,981.7,303L981.7,303z"/>
			</g>
		</g>
		<g>
			<g>
				<path style="fill:#515151;" d="M988.7,302.5c0,4.3,0,8.7,0,13c0,1.9,3,1.9,3,0c0-4.3,0-8.7,0-13
					C991.7,300.6,988.7,300.5,988.7,302.5L988.7,302.5z"/>
			</g>
		</g>
		<g>
			<g>
				<path style="fill:#515151;" d="M974.5,302.2c0,4.5,0,9,0,13.5c0,1.9,3,1.9,3,0c0-4.5,0-9,0-13.5
					C977.5,300.3,974.5,300.3,974.5,302.2L974.5,302.2z"/>
			</g>
		</g>
		<ellipse style="fill:#CECECE;" cx="988" cy="348" rx="3" ry="2"/>
		<path style="fill:none;stroke:#515151;stroke-width:4;stroke-linecap:round;stroke-linejoin:round;stroke-miterlimit:10;" d="
			M989.8,351c-1.2,0.9-2.8,1-4.1,0.4c-1.3-0.6-2.2-2-2.3-3.5l-0.7,0.3c0,1.5-1,3-2.4,3.5s-3.1,0.2-4.2-0.9"/>
	</g>
</g>
<g id="Layer_2">
</g>
</svg>
