<svg xmlns="http://www.w3.org/2000/svg" viewBox="0 0 512 512"><g fill="none" stroke="#49c5b8" stroke-width="20" stroke-miterlimit="10"><path class="path" d="M312.1 93.4c0-12.8-10.4-23.2-23.2-23.2h-77.4c-12.8 0-23.2 10.4-23.2 23.2v38.7h123.9V93.4zM165 395.3c-2.6 0-5.2-.2-7.7-.4V434c0 4.3 3.5 7.7 7.7 7.7h170.3c4.3 0 7.7-3.5 7.7-7.7v-39.1c-2.5.3-5.1.4-7.7.4H165z"/><path class="path" d="M335.3 132.1H165c-38.5 0-69.7 31.2-69.7 69.7v123.9c0 35.9 27.1 65.4 61.9 69.2H343c34.8-3.9 61.9-33.4 61.9-69.2V201.8c.1-38.5-31.1-69.7-69.6-69.7z"/></g><circle cx="198.8" cy="240" r="18.5" fill="#49c5b8"/><circle cx="301.8" cy="240" r="18.5" fill="#49c5b8"/><path class="path" d="M298.6 312.4c-9.7 16.7-27.7 27.9-48.4 27.9s-38.7-11.2-48.4-27.9" fill="none" stroke="#49c5b8" stroke-width="20" stroke-linecap="round" stroke-linejoin="round" stroke-miterlimit="10"/></svg>