<svg xmlns="http://www.w3.org/2000/svg" width="80px" height="80px" viewBox="0 0 150 150"><path fill="currentColor" d="M75 131.7c-15.1 0-29.4-5.9-40.1-16.6S18.3 90.1 18.3 75s5.9-29.4 16.6-40.1 25-16.6 40.1-16.6 29.4 5.9 40.1 16.6 16.6 24.9 16.6 40.1-5.9 29.4-16.6 40.1-25 16.6-40.1 16.6zm0-111.1c-14.5 0-28.2 5.7-38.5 15.9-10.2 10.3-15.9 24-15.9 38.5s5.7 28.2 15.9 38.5c10.3 10.3 23.9 15.9 38.5 15.9s28.2-5.7 38.5-15.9c10.3-10.3 15.9-23.9 15.9-38.5s-5.7-28.2-15.9-38.5c-10.3-10.2-24-15.9-38.5-15.9z"/><path fill="currentColor" d="M88.1 60.7l-3.4-4.4-4.9-6.4c-2.1-2.7-4.2-4.2-6.6-4.6-2.4-.4-4.6.2-7 2-2 1.5-3.9 4.5-4.2 6.6-2.4-.4-4.6.2-7 2-1.7 1.2-3.4 3.7-4 5.7-.2.5-.6.8-1.1.8-2.1-.1-4 .5-6.1 2.1-1.8 1.3-2.7 2.7-3 4.3-.1.3-.4.3-.5.1l-6.5-8.1c-.2-.2-.5-.2-.5.1l-1.7 5c-.1.4 0 .9.2 1.2l13 17.1c.4.6 1.2.7 1.9.3l2.4-1.9c.5-.4.6-1.2.2-1.9l-5-6.5c-.3-.2-.3-.5-.3-.8 0-.6.2-1.3.5-2.2.4-.9.7-1.5 1.5-2.2 1.1-.8 2.4-1.2 3.7-.9 1.3.2 2.3.9 3.3 2.3l7.3 9.7c.4.6 1.2.7 1.9.3l2.4-1.8c.5-.4.6-1.2.2-1.9L57.5 67c-.2-.2-.3-.4-.5-.6-.1-.1-.2-.3-.3-.5-.1-.3-.2-.7-.3-1.2-.4-1.7.1-3.4 1.5-4.4 1.9-1.5 4.7-.9 6.4 1.2l8.4 11.2 3.3-2.6c.5-.4.6-1.2.2-1.9l-7.3-9.7c-.4-.6-1-1.8-1-2.4-.4-1.7.1-3.4 1.5-4.4 1.9-1.5 4.7-.9 6.4 1.2.2.2 6.7 9 6.7 9s.5.7 1.7.9c.8.1 1.5-.1 1.7-.2.1 0 .1-.1.2-.1l2-1.8zM61.8 89.4l3.4 4.4 4.8 6.4c2.1 2.7 4.2 4.2 6.6 4.6 2.4.4 4.6-.2 7-2 2-1.5 3.9-4.5 4.2-6.6 2.4.4 4.6-.2 7-2 1.7-1.2 3.4-3.7 4-5.7.2-.5.6-.8 1.1-.8 2.1.1 4-.5 6.1-2.1 1.8-1.3 2.7-2.7 3-4.3.1-.3.4-.3.5-.1l6.4 8.1c.2.2.5.2.5-.1l1.7-5c.1-.4 0-.9-.2-1.2l-13-17.1c-.4-.6-1.2-.7-1.9-.3l-2.4 1.9c-.5.4-.6 1.2-.2 1.9l5 6.6c.2.2.3.5.3.8 0 .6-.2 1.3-.5 2.2-.4.9-.7 1.5-1.5 2.2-1.1.8-2.4 1.2-3.7.9-1.3-.2-2.4-.9-3.4-2.3L89.4 70c-.4-.6-1.2-.7-1.9-.3l-2.4 1.8c-.5.4-.6 1.2-.2 1.9l7.3 9.7c.2.2.3.4.5.6.1.1.2.3.3.5.1.3.2.7.3 1.2.4 1.7-.1 3.4-1.5 4.4-1.9 1.5-4.7.9-6.4-1.2L77 77.4 73.8 80c-.5.4-.6 1.2-.2 1.9l7.3 9.7c.4.6 1 1.8 1 2.4.4 1.7-.1 3.4-1.5 4.4-1.9 1.5-4.7.9-6.4-1.2-.2-.2-6.7-9-6.7-9s-.5-.7-1.7-.9c-.8-.1-1.5.1-1.7.2-.1 0-.1.1-.2.1l-1.9 1.8z"/></svg>