<svg width="150" height="150" xmlns="http://www.w3.org/2000/svg">
    <title>Orange</title>
    <path
        d="M94.676 93.088h.265c.883.088 1.5.883 1.412 1.765H93c.088-1.147.706-1.765 1.676-1.765zm-9.176.088c1.147 0 1.765 1.06 1.765 2.383 0 1.147-.177 2.823-1.765 2.823-1.588 0-1.676-1.676-1.676-2.735 0-1.941.882-2.47 1.676-2.47zm-32.912.265c1.677 0 1.941 1.5 1.941 2.559 0 1.059-.264 2.559-1.94 2.559-1.677 0-1.942-1.5-1.942-2.559 0-1.059.265-2.559 1.941-2.559zm13.06 4.235c0-1.058.97-1.588 3-1.764v1.94c-.53.53-1.236.883-2.03.883h-.089c-.529 0-.882-.53-.882-1.059zM45 45h60v60H45V45zm7.588 55.324c2.206 0 4.147-1.412 4.147-4.412s-1.94-4.412-4.147-4.412c-2.206 0-4.147 1.412-4.147 4.412s1.941 4.412 4.147 4.412zm10.324-6.618v-2.118h-.265c-.882 0-1.676.441-2.294 1.147v-.97h-2.118v8.382h2.206v-5.559c.353-.706 1.412-.882 2.47-.882zm6 6.441h1.94V94.06c0-1.5-1.146-2.47-3.352-2.47-1.412 0-2.735.529-3.53 1.676l1.5.882c.442-.618 1.236-.97 2.03-.97.882 0 1.324.352 1.324.97v.441c-3.618.441-5.295 1.412-5.295 3.265v.265c.089 1.235 1.236 2.206 2.471 2.117.97 0 1.941-.264 2.735-.794l.177.706zm11.206 0v-5.823c0-1.853-.97-2.736-2.647-2.736-.971.088-2.03.441-2.824 1.147l-.176-.97-1.853.264v8.118h2.206v-6c.529-.618 1.235-.882 2.029-.97.794 0 1.059.44 1.059 1.5v5.47h2.206zm9.264-.53l.177-7.852h-1.853l-.177.97c-.176-.44-.794-1.147-2.382-1.147-1.765 0-3.353 1.5-3.353 4.324 0 2.823 1.5 4.147 3.441 4.147.883.088 1.677-.441 2.118-1.235v.97c0 1.324-.441 1.853-1.677 1.853-1.235 0-1.5-.353-1.588-.794l-2.206.353c.265 1.5 1.765 2.118 3.442 2.118 3.97 0 4.058-2.295 4.058-3.706zm9.089-3.352v-.441c0-2.736-1.5-4.236-3.883-4.236-2.382 0-3.882 1.588-3.882 4.324 0 2.735 1.412 4.323 3.882 4.323 1.5.089 2.912-.53 3.706-1.764l-1.588-.883c-.353.706-1.059 1.06-1.853 1.06-1.235 0-1.941-.795-1.941-2.383h5.559zm.882-7.236v-.44h-2.206v.352h.882v2.383h.442v-2.295h.882zm3.618 2.383l.088-2.824h-.706l-.794 2.118-.794-2.118h-.706v2.736h.441v-2.206l.882 2.294h.265l.882-2.294v2.294h.442z"
        fill="currentColor" fill-rule="nonzero" />
</svg>