<svg width="150" height="150" xmlns="http://www.w3.org/2000/svg">
    <title>Spirax Sarco</title>
    <path
        d="M122.847 77.345c2.548 0 4.79.834 6.217 2.398.815.938 1.019 1.772 1.12 2.293l-4.79.521c-.305-1.147-1.528-1.772-2.649-1.772-1.834-.104-3.159 1.25-3.159 3.336 0 2.084 1.223 3.543 3.16 3.543.509 0 1.324-.104 1.936-.625.611-.417.713-.938.917-1.355l4.79.209c-.204.73-.612 2.084-1.835 3.23C126.72 90.793 124.172 91 122.44 91c-2.343 0-5.095-.625-6.624-2.606-.713-.938-1.325-2.501-1.325-4.065a6.8 6.8 0 012.242-5.108c1.631-1.459 3.975-1.876 6.115-1.876zm-41.783 0c3.159 0 6.114.938 6.828 4.274l-4.79.208c-.204-1.25-1.936-1.355-2.344-1.355-.917 0-1.733.313-1.733 1.043 0 .417.306.625.918.834.611.208 3.668.625 4.28.73 1.63.312 3.669.729 3.669 3.335 0 1.25-.51 2.084-1.02 2.606-.917.938-2.445 1.98-5.808 1.98-2.344 0-4.382-.521-5.605-1.147-1.223-.73-1.631-1.772-1.733-3.127l4.994-.312c0 .208.102.417.305.73.408.52 1.325.729 2.14.729.918 0 1.937-.313 1.937-1.147 0-.208-.102-.312-.102-.417-.306-.312-1.02-.52-2.548-.73-.815-.103-1.732-.312-2.548-.52-2.14-.626-3.566-1.251-3.566-3.649 0-4.065 5.299-4.065 6.726-4.065zm15.286.105c2.14 0 4.179.208 5.402.938 1.599.866 1.722 2.62 1.731 3.54l.001 6.883c0 .938.102 1.355.612 1.876h-4.994c-.102-.52-.102-.625-.204-1.25-1.223.625-3.057 1.563-5.401 1.563-1.223 0-2.548-.208-3.465-1.147-.815-.73-1.223-1.772-1.223-2.918 0-.73.204-1.564.611-2.19.306-.52 1.02-1.146 1.937-1.458 1.834-.626 5.197-.73 7.541-.73 0-.313 0-.625-.204-1.042-.204-.313-.611-.73-2.038-.73l-.149.001c-.318.005-.955.034-1.38.207-.815.209-1.019.626-1.12.939h-4.689v-.105c.102-.834.306-2.293 1.631-3.23 1.02-.73 2.854-1.147 5.401-1.147zM147 84.12c0 4.483-3.567 6.672-7.949 6.672-3.77 0-7.95-1.668-7.95-6.671 0-4.795 3.772-6.671 7.644-6.671 6.217-.105 8.255 3.543 8.255 6.67zm-32.815-6.462v5.003c-.408 0-.714-.104-1.121-.104-1.325 0-1.835.313-2.14.625-.468.478-.506 1.043-.51 1.536v5.865h-4.79V77.866h4.79v1.98c.408-.625.917-1.25 1.529-1.563.917-.625 1.63-.625 2.242-.625zM72.197 63.065v.209l2.242 3.335 2.752-3.335h5.605l-5.503 6.045 5.605 6.567H77.09l-2.446-3.544-13.452 18.033h-8.968l19.77-20.952-5.706-6.358h5.91zM99 84.745c-.815 0-2.548.105-3.363.21-.713.104-1.936.208-1.936 1.354 0 .417.203 1.251 1.732 1.251.815 0 1.63-.208 2.242-.73 1.02-.625 1.121-1.459 1.325-2.084zm39.847-3.96c-2.242.104-2.853 1.876-2.853 3.336 0 2.605 1.732 3.335 3.159 3.335 1.019 0 2.955-.625 2.955-3.335 0-2.085-1.223-3.336-3.26-3.336zM27.46 62.961c2.955 0 5.91 2.085 5.91 6.775 0 3.857-2.242 6.671-5.91 6.671-2.039 0-3.16-.834-3.975-1.563v5.524h-4.79V63.17h4.79v1.355c.51-.52 1.63-1.563 3.975-1.563zm-17.121-.209c3.159 0 6.114.939 6.828 4.274l-4.79.209c-.204-1.251-1.937-1.356-2.344-1.356-.917 0-1.733.313-1.733 1.043 0 .417.306.625.918.834.611.208 3.668.625 4.28.73 1.63.312 3.669.729 3.669 3.335 0 1.25-.51 2.085-1.02 2.606-.917.938-2.445 1.98-5.808 1.98-2.344 0-4.383-.521-5.606-1.146-1.222-.73-1.63-1.772-1.732-3.127l4.994-.313c0 .208.102.417.305.73.408.52 1.325.73 2.14.73.918 0 1.937-.314 1.937-1.147 0-.209-.102-.313-.102-.417-.306-.313-1.02-.522-2.548-.73-.815-.104-1.732-.313-2.548-.521-2.14-.626-3.567-1.251-3.567-3.648 0-4.066 5.3-4.066 6.727-4.066zm47.286.105c2.14 0 4.179.208 5.401.938 1.6.866 1.723 2.62 1.732 3.54l.001 6.883c0 .938.102 1.355.611 1.876h-4.993c-.102-.52-.102-.625-.204-1.25-1.223.625-3.057 1.563-5.401 1.563-1.223 0-2.548-.208-3.465-1.146-.816-.73-1.223-1.772-1.223-2.919 0-.73.204-1.563.611-2.189.306-.521 1.02-1.146 1.937-1.46 1.834-.625 5.197-.729 7.541-.729 0-.313 0-.625-.204-1.042-.204-.313-.611-.73-2.038-.73-.204 0-1.02 0-1.529.209-.815.208-1.019.625-1.12.938h-4.689v-.104c.102-.834.306-2.294 1.63-3.232 1.02-.73 2.854-1.146 5.402-1.146zm-18.242.417V75.99h-4.79V63.274h4.79zm10.599-.209v5.003c-.408 0-.713-.104-1.121-.104-1.325 0-1.835.313-2.14.626-.467.477-.506 1.043-.51 1.535v5.865h-4.79V63.17h4.79v2.084c.408-.625.917-1.25 1.529-1.563.917-.626 1.63-.626 2.242-.626zm10.293 6.984c-.815.104-2.548.208-3.363.208-.714.105-1.936.209-1.936 1.355 0 .417.203 1.251 1.732 1.251.815 0 1.63-.208 2.242-.73 1.02-.625 1.121-1.459 1.325-2.084zm-34.446-3.336c-1.936.105-2.344 1.877-2.344 2.815 0 1.563.917 2.918 2.548 2.918 1.63 0 2.446-1.355 2.446-2.918 0-1.355-.714-2.919-2.65-2.815zM39.382 59v2.919h-4.79V59h4.79z"
        fill="currentColor" fill-rule="nonzero" />
</svg>