<svg width="94" height="94" xmlns="http://www.w3.org/2000/svg" xmlns:xlink="http://www.w3.org/1999/xlink">
    <title>University of the West of England - UWE</title>
    <defs>
        <path id="a" d="M0 94.24h94.611V.386H0z" />
    </defs>
    <g fill="none" fill-rule="evenodd">
        <path fill="currentColor" d="M0 94h94V0H0z" />
        <g transform="translate(0 -1)">
            <path
                d="M9.524 56.136V45.48h5.182V55.91c0 2.533.632 3.76 2.831 3.76 2.15 0 2.83-1.153 2.83-3.835V45.48H25.6V56.06c0 5.216-3.083 7.648-8.063 7.648-5.106 0-8.013-2.557-8.013-7.573M26.384 45.48h5.233l2.325 11.183 2.426-11.184h4.601l2.629 11.284 2.452-11.284h4.802l-4.22 17.929h-5.41l-2.78-11.384-2.807 11.384h-5.054zM17.104 81.022c1.643 0 2.401-.752 2.401-2.08v-.102c0-1.353-.732-2.055-2.552-2.055h-1.997v4.237h2.148zm-.177-7.372c1.618 0 2.225-.551 2.225-1.83v-.1c0-1.229-.657-1.78-2.225-1.78h-1.971v3.71h1.971zM9.9 66.53h8.064c4.271 0 6.091 1.905 6.091 4.688v.1c0 2.007-1.036 3.335-3.058 3.862 2.224.376 3.615 1.705 3.615 4.187v.1c0 3.21-2.098 4.991-6.572 4.991H9.9V66.529zM25.997 71.343h4.524v2.608c.835-1.956 2.225-2.808 4.272-2.783v4.187c-2.755-.075-4.272.778-4.272 2.884v6.219h-4.524V71.343z"
                fill="#333647" />
            <path
                d="M36.18 84.457h4.524V71.343H36.18v13.114zm-.228-16.674c0-1.329 1.062-2.332 2.478-2.332 1.415 0 2.502 1.003 2.502 2.332s-1.087 2.307-2.502 2.307c-1.416 0-2.478-.978-2.478-2.307zM42.114 80.295h4.17c.152.953.582 1.48 1.87 1.48 1.113 0 1.619-.427 1.619-1.078 0-.627-.632-.928-2.453-1.18-3.538-.45-5.03-1.478-5.03-4.211 0-2.91 2.604-4.314 5.662-4.314 3.261 0 5.536 1.104 5.84 4.238h-4.095c-.177-.878-.657-1.304-1.694-1.304-.986 0-1.491.426-1.491 1.029 0 .626.606.877 2.224 1.078 3.665.45 5.435 1.404 5.435 4.212 0 3.11-2.325 4.513-5.99 4.513-3.767 0-5.966-1.554-6.067-4.463M56.31 80.245v-5.843h-1.592v-3.059h1.592V68.61h4.525v2.733h2.604v3.06h-2.604v5.416c0 .952.48 1.379 1.34 1.379.505 0 .885-.075 1.289-.226v3.41c-.581.15-1.441.377-2.502.377-2.983 0-4.652-1.43-4.652-4.514M74.075 77.988v-.2c0-2.207-.885-3.435-2.604-3.435-1.693 0-2.628 1.178-2.628 3.385v.2c0 2.257.884 3.485 2.628 3.485 1.694 0 2.604-1.253 2.604-3.435m-9.858.076v-.201c0-4.213 3.16-6.87 7.254-6.87 4.07 0 7.204 2.582 7.204 6.745v.2c0 4.263-3.16 6.82-7.229 6.82-4.07 0-7.229-2.457-7.229-6.694M80.211 84.458h4.5V66.526h-4.5zM56.781 59.446v-3.26h5.839v-3.66h-5.839V49.44h7.33V45.48H51.625v17.928h12.891v-3.962z"
                fill="#333647" />
        </g>
    </g>
</svg>