<svg width="150" height="150" xmlns="http://www.w3.org/2000/svg">
    <title>Verses Arthritis</title>
    <path
        d="M53.31 77.898v4.881c0 .195-.162.306-.377.306H40.464c-.135 0-.323-.028-.323-.333V50.19c0-.25.134-.416.323-.416h12.442c.242 0 .404.138.404.36v4.77c0 .14-.108.306-.296.306h-7.325v8.154h6.005c.108 0 .323.055.323.416v4.604c0 .166-.08.416-.377.416H45.69v8.792h7.298c.161 0 .323.11.323.305zm-21.816 4.77l3.988 17.847c.027.083 0 .193-.054.276-.026.083-.107.11-.215.11h-3.369c-.323 0-.404-.11-.431-.33l-.539-2.897h-3.935l-.512 2.952c-.027.165-.134.275-.27.275h-3.556c-.054 0-.135-.055-.189-.11-.054-.083-.108-.193-.08-.276l4.042-17.874c.08-.304.215-.331.35-.331h4.42c.161 0 .296.055.35.358zm-4.07 11.834h3.073l-.97-5.351-.566-3.724-.566 3.724-.97 5.35zm64.618-21.317c0 1.122-.165 2.076-.579 2.946-1.323 2.89-4.19 4.63-7.692 4.63-2.509 0-4.604-.814-6.037-2.357-1.269-1.375-1.958-3.227-1.958-5.219v-2.497c0-.196.166-.365.359-.365h4.907c.193 0 .33.225.33.421v1.796c0 1.571 1.048 2.721 2.482 2.721 1.323 0 2.481-1.122 2.481-2.384 0-1.936-.772-3.143-3.28-5.079l-2.316-1.992c-3.502-3.002-5.018-4.517-4.963-9.09 0-3.732 2.785-7.716 7.885-7.716 2.316 0 4.3.758 5.707 2.188 1.434 1.46 2.178 3.48 2.178 5.892v1.347c0 .253-.138.421-.193.421h-5.018c-.303 0-.33-.365-.33-.42V57.08c0-1.543-.91-2.58-2.261-2.58-.938 0-2.096.588-2.261 2.216v.056c-.083 1.852.662 3.058 2.84 4.601l.413.337c4.411 3.647 7.306 6.06 7.306 11.475zm-53.455-22.97l-6.381 29.248c-.112.523-.335.523-.502.523h-4.905c-.222 0-.445-.165-.501-.523L20 50.188c0-.11.028-.193.084-.276a.446.446 0 01.278-.137h5.1c.362 0 .446.082.501.44l3.344 21.757 3.344-21.757c.056-.33.196-.44.558-.44h5.016c.083 0 .25.027.306.11.084.082.056.248.056.33zm72.047 23.021c0 1-.22 1.972-.605 2.86-1.429 2.888-4.314 4.665-7.529 4.665-2.033 0-4.067-.778-5.606-2.11-1.621-1.444-2.528-3.36-2.528-5.415V50.191c0-.25.138-.416.33-.416h4.946c.385 0 .385.388.385.416v22.601c0 1.5.962 2.416 2.473 2.416 1.814 0 2.473-1.305 2.473-2.416v-22.6c0-.195.055-.417.385-.417h4.946c.192 0 .33.166.33.416v23.045zM130 75.513a7.62 7.62 0 01-.554 2.906c-1.192 2.961-3.991 4.666-7.732 4.666-3.852 0-7.982-2.347-7.982-7.544v-2.375c0-.195.194-.335.36-.335h4.878c.166 0 .333.168.333.363v1.733c0 1.843 1.302 2.682 2.494 2.682 1.552 0 2.494-1.286 2.494-2.515 0-1.508-.277-2.71-1.774-4.218-.83-.81-1.58-1.537-2.244-2.208-5.266-5.196-6.513-6.425-6.513-11.985 0-3.716 2.744-7.683 7.843-7.683 2.328 0 4.295.726 5.709 2.151 1.44 1.453 2.217 3.493 2.217 5.895v1.9c0 .168-.166.335-.36.335h-4.795c-.277 0-.36-.251-.36-.335v-1.844c0-1.648-.86-2.654-2.273-2.654-1.136 0-2.272.81-2.272 2.375 0 2.402.471 3.296 2.716 5.42.277.251.526.503.804.754l.027.028c3.742 3.492 6.984 6.51 6.984 12.488zm-59.266-6.296l5.033 13.507c.028.083-.028.166-.056.222-.085.083-.169.139-.197.139h-5.567c-.225 0-.309 0-.422-.417l-4.189-11.815h-2.39v11.899c0 .277-.252.333-.337.333H57.52c-.253 0-.337-.167-.337-.333V50.19c0-.084 0-.416.337-.416h7.957c3.964 0 8.181 3.106 8.181 7.765v5.52c0 2.413-.759 4.687-2.924 6.157zm-2.867-6.157h-.028v-5.492c0-1.359-1.04-2.357-2.446-2.357h-2.446v10.206h2.53c1.378 0 2.39-1.026 2.39-2.357zm57.394 28.576c3.54 1.435 4.71 2.616 4.739 5.231 0 2.84-2.427 4.81-5.853 4.81-4.254 0-5.767-2.673-5.767-4.95v-.394c0-.113.114-.338.371-.338h3.312c.257 0 .314.253.314.31v.562c0 1.181 1.085 1.687 1.827 1.687 1.171 0 1.799-.928 1.799-1.63 0-.676-.343-1.35-1-1.66-.456-.225-.913-.422-1.312-.619l-.058-.028c-3.94-1.884-5.253-2.503-5.253-4.865 0-2.925 2.427-5.118 5.682-5.118 3.426 0 5.538 1.968 5.538 5.118v.225c0 .084-.142.253-.314.253h-3.226c-.171 0-.314-.14-.314-.337v-.225c0-1.378-.856-1.884-1.684-1.884-.942 0-1.628.618-1.628 1.462 0 .703.257 1.35 2.827 2.39zm-12.813 9.265c-.132 0-.265 0-.265-.326V85.79c0-.272.106-.38.345-.38h3.21c.212 0 .318.108.318.326v14.895c0 .271-.291.271-.345.271h-3.263zM110.32 82.31c.143 0 .314.166.314.304v3.232c0 .11-.143.276-.371.276h-3.37v14.448c0 .055-.028.331-.285.331h-3.654c-.286 0-.286-.276-.286-.331V86.122h-3.34c-.114 0-.314-.083-.314-.359v-3.094c0-.304.257-.36.343-.36h10.963zm-13.953 0c.16 0 .347.055.32.358v17.93c0 .138-.106.303-.293.303h-3.31c-.16 0-.267-.165-.267-.275V82.668c0-.33.347-.358.4-.358h3.15zm-20.9 3.098c.11 0 .333.163.305.326v14.842c0 .135-.166.298-.278.298h-3.446c-.111 0-.278-.135-.278-.325v-5.644h-3.502v5.725c0 .109-.139.271-.305.271h-3.53c-.111 0-.278-.162-.278-.298V85.788c0-.271.194-.38.361-.38h3.39c.14 0 .362.055.362.353v5.345h3.502v-5.345c0-.108.083-.353.334-.353h3.363zm-17.415 3.8v11.368c0 .271-.254.325-.339.325h-3.412c-.085 0-.31-.081-.31-.27V89.206h-3.498c-.084 0-.282-.108-.282-.271V85.76c0-.271.282-.353.395-.353h10.887c.225 0 .338.218.338.272v3.256c0 .108-.113.271-.31.271h-3.47zm24.875 5.735H82.9v5.627s0 .331-.327.331h-3.428c-.136 0-.272-.165-.272-.303v-17.93c0-.275.272-.358.408-.358h5.387c3.483 0 5.632 2.841 5.632 5.49v1.489c0 2.317-1.306 3.889-2.095 4.303l2.258 6.84v.028a.3.3 0 01-.027.303.271.271 0 01-.245.138h-3.346c-.082 0-.272-.082-.354-.358l-1.442-5.6h-2.122zm-.218-3.751h1.742c1.033 0 1.686-.883 1.686-1.71v-1.82c0-1.104-.87-1.628-1.686-1.628h-1.742v5.158zm-38.02 9.41l-1.208-4.077h-1.88v4.05c0 .19-.133.326-.348.326h-3.14c-.189 0-.296-.081-.296-.271V85.789c0-.217.134-.38.349-.38h4.94c2.737 0 5.556 2.01 5.556 5.408v.354c0 1.63-.617 3.071-1.772 4.104l-.188.19 1.933 5.083c.027.082.027.136-.027.218a.338.338 0 01-.241.108h-3.168c-.349 0-.43-.027-.51-.272zm-3.248-7.501h1.53c.993 0 1.664-.68 1.664-1.686v-.842c0-.952-.698-1.604-1.664-1.604h-1.53v4.132z"
        fill="currentColor" fillRule="nonzero" />
</svg>